<svg xmlns="http://www.w3.org/2000/svg" xmlns:xlink="http://www.w3.org/1999/xlink" width="500" zoomAndPan="magnify" viewBox="0 0 375 374.999991" height="500" preserveAspectRatio="xMidYMid meet" version="1.2"><defs><clipPath id="6a88c1c756"><path d="M 18.640625 16 L 374.890625 16 L 374.890625 375 L 18.640625 375 Z M 18.640625 16 "/></clipPath><clipPath id="156eb52dca"><path d="M 42 20.285156 L 70.28125 20.285156 L 70.28125 55 L 42 55 Z M 42 20.285156 "/></clipPath><clipPath id="64718995f7"><path d="M 49 58 L 59 58 L 59 66.785156 L 49 66.785156 Z M 49 58 "/></clipPath><clipPath id="8ff1d037bf"><path d="M 10 48 L 35 48 L 35 90 L 10 90 Z M 10 48 "/></clipPath><clipPath id="72065d3489"><path d="M 13.640625 46.441406 L 36.515625 50.585938 L 26.09375 108.148438 L 3.214844 104.003906 Z M 13.640625 46.441406 "/></clipPath><clipPath id="1d6b4bbbbf"><path d="M 13.640625 46.441406 L 36.515625 50.585938 L 26.09375 108.148438 L 3.214844 104.003906 Z M 13.640625 46.441406 "/></clipPath><clipPath id="5f25771c25"><path d="M 13.640625 46.441406 L 36.515625 50.585938 L 26.09375 108.148438 L 3.214844 104.003906 Z M 13.640625 46.441406 "/></clipPath><clipPath id="a85b2de329"><path d="M 13.628906 46.496094 L 36.503906 50.636719 L 29.183594 91.070312 L 6.308594 86.929688 Z M 13.628906 46.496094 "/></clipPath><clipPath id="4fa71122c0"><path d="M 14 96 L 24 96 L 24 107 L 14 107 Z M 14 96 "/></clipPath><clipPath id="5b90a6e697"><path d="M 13.640625 46.441406 L 36.515625 50.585938 L 26.09375 108.148438 L 3.214844 104.003906 Z M 13.640625 46.441406 "/></clipPath><clipPath id="2d43ce2f05"><path d="M 13.640625 46.441406 L 36.515625 50.585938 L 26.09375 108.148438 L 3.214844 104.003906 Z M 13.640625 46.441406 "/></clipPath><clipPath id="87188fc0bf"><path d="M 13.640625 46.441406 L 36.515625 50.585938 L 26.09375 108.148438 L 3.214844 104.003906 Z M 13.640625 46.441406 "/></clipPath><clipPath id="61b5fffb58"><path d="M 15.140625 95.300781 L 24.796875 97.046875 L 22.902344 107.511719 L 13.246094 105.765625 Z M 15.140625 95.300781 "/></clipPath><clipPath id="0ecd886edd"><path d="M 81 1 L 104 1 L 104 44 L 81 44 Z M 81 1 "/></clipPath><clipPath id="538a69d8fb"><path d="M 78.023438 5.6875 L 97.996094 -0.789062 L 114.890625 51.289062 L 94.914062 57.769531 Z M 78.023438 5.6875 "/></clipPath><clipPath id="481850c7e8"><path d="M 78.023438 5.6875 L 97.996094 -0.789062 L 114.890625 51.289062 L 94.914062 57.769531 Z M 78.023438 5.6875 "/></clipPath><clipPath id="70c6f61c45"><path d="M 78.023438 5.6875 L 97.996094 -0.789062 L 114.890625 51.289062 L 94.914062 57.769531 Z M 78.023438 5.6875 "/></clipPath><clipPath id="a75d9dfa12"><path d="M 103 49 L 109 49 L 109 55 L 103 55 Z M 103 49 "/></clipPath><clipPath id="54efef5d77"><path d="M 78.023438 5.6875 L 97.996094 -0.789062 L 114.890625 51.289062 L 94.914062 57.769531 Z M 78.023438 5.6875 "/></clipPath><clipPath id="af2a93c165"><path d="M 78.023438 5.6875 L 97.996094 -0.789062 L 114.890625 51.289062 L 94.914062 57.769531 Z M 78.023438 5.6875 "/></clipPath><clipPath id="773389def0"><path d="M 78.023438 5.6875 L 97.996094 -0.789062 L 114.890625 51.289062 L 94.914062 57.769531 Z M 78.023438 5.6875 "/></clipPath></defs><g id="f3c0c0dd6b"><g clip-rule="nonzero" clip-path="url(#6a88c1c756)"><path style=" stroke:none;fill-rule:nonzero;fill:#000000;fill-opacity:1;" d="M 211.207031 277.8125 C 211.574219 277.503906 211.78125 277.347656 211.96875 277.167969 C 216.148438 273.230469 220.246094 269.199219 224.523438 265.367188 C 233.921875 256.945312 243.445312 248.664062 254.070312 241.777344 C 259.535156 238.234375 265.234375 235.144531 271.433594 233.058594 C 274.683594 231.960938 278.003906 231.203125 281.425781 230.902344 C 286.917969 230.417969 292.195312 231.34375 297.324219 233.285156 C 300.742188 234.582031 303.9375 236.238281 306.863281 238.496094 C 309.949219 240.878906 313.257812 242.972656 316.457031 245.210938 C 317.40625 245.878906 318.355469 246.558594 319.230469 247.320312 C 325.863281 253.113281 331.867188 259.527344 337.613281 266.183594 C 345.988281 275.878906 353.816406 286.015625 361.613281 296.171875 C 363.054688 298.050781 364.476562 299.9375 365.90625 301.824219 C 366.128906 302.121094 366.335938 302.429688 366.609375 302.8125 C 365.933594 303.433594 365.285156 304.03125 364.535156 304.71875 C 364.214844 304.316406 363.9375 303.980469 363.667969 303.640625 C 356.277344 294.167969 348.933594 284.65625 341.472656 275.238281 C 336.710938 269.234375 331.640625 263.488281 326.328125 257.960938 C 322.863281 254.355469 319.210938 250.953125 315.363281 247.761719 C 315.054688 247.5 314.734375 247.25 314.332031 246.929688 C 314.003906 247.328125 313.714844 247.664062 313.445312 248.011719 C 308.53125 254.292969 303.25 260.238281 297.375 265.640625 C 292.851562 269.804688 287.953125 273.441406 282.4375 276.210938 C 276.25 279.3125 269.695312 280.75 262.789062 280.933594 C 252.9375 281.195312 243.449219 279.320312 234.140625 276.316406 C 230.355469 275.097656 226.628906 273.703125 222.875 272.386719 C 222.488281 272.253906 222.101562 272.117188 221.6875 271.972656 C 221.414062 272.207031 221.148438 272.414062 220.90625 272.644531 C 217.839844 275.523438 214.78125 278.410156 211.707031 281.28125 C 211.25 281.707031 210.941406 282.132812 210.949219 282.816406 C 211.039062 293.429688 212.242188 303.875 215.65625 313.980469 C 216.195312 315.578125 216.867188 317.132812 217.492188 318.699219 C 217.628906 319.039062 217.820312 319.359375 218.023438 319.757812 C 218.496094 319.542969 218.910156 319.375 219.300781 319.171875 C 226.394531 315.484375 233.5 311.816406 240.574219 308.097656 C 247.089844 304.671875 253.59375 301.234375 260.414062 298.445312 C 265.496094 296.363281 270.6875 294.625 276.128906 293.757812 C 287.421875 291.953125 298.09375 293.65625 308.109375 299.304688 C 314.429688 302.871094 320.113281 307.269531 325.371094 312.238281 C 330.292969 316.886719 334.90625 321.820312 339.164062 327.082031 C 339.328125 327.285156 339.484375 327.496094 339.859375 327.957031 C 339.191406 328.578125 338.523438 329.195312 337.773438 329.890625 C 337.34375 329.367188 337.035156 328.996094 336.734375 328.625 C 331.144531 321.769531 325.109375 315.34375 318.234375 309.75 C 312.761719 305.292969 306.894531 301.484375 300.308594 298.855469 C 294.285156 296.453125 288.058594 295.34375 281.574219 295.839844 C 276.789062 296.207031 272.164062 297.320312 267.628906 298.839844 C 261.492188 300.898438 255.621094 303.578125 249.886719 306.554688 C 242.757812 310.257812 235.683594 314.066406 228.570312 317.796875 C 225.910156 319.191406 223.199219 320.484375 220.515625 321.828125 C 220.179688 321.992188 219.851562 322.164062 219.527344 322.328125 C 219.839844 323.707031 222.570312 327.59375 224.265625 329.0625 C 224.59375 328.917969 224.972656 328.773438 225.332031 328.585938 C 232.222656 324.996094 239.117188 321.414062 245.992188 317.792969 C 252.234375 314.503906 258.476562 311.210938 265.019531 308.542969 C 269.234375 306.824219 273.539062 305.410156 278.019531 304.546875 C 284.90625 303.21875 291.535156 304.023438 297.972656 306.734375 C 302.78125 308.761719 307.160156 311.503906 311.28125 314.675781 C 317.949219 319.816406 323.753906 325.832031 329.140625 332.273438 C 330.050781 333.367188 330.9375 334.480469 331.890625 335.65625 C 331.214844 336.316406 330.582031 336.933594 329.855469 337.648438 C 329.542969 337.28125 329.253906 336.953125 328.984375 336.613281 C 324.941406 331.570312 320.714844 326.691406 315.929688 322.320312 C 311.507812 318.28125 306.804688 314.625 301.546875 311.71875 C 297.683594 309.582031 293.621094 307.980469 289.28125 307.058594 C 285.480469 306.253906 281.742188 306.597656 278.007812 307.40625 C 272.214844 308.664062 266.746094 310.839844 261.378906 313.304688 C 254.691406 316.378906 248.25 319.941406 241.746094 323.378906 C 237.070312 325.855469 232.359375 328.269531 227.664062 330.710938 C 227.433594 330.828125 227.210938 330.957031 226.824219 331.171875 C 227.238281 331.457031 227.546875 331.699219 227.878906 331.902344 C 230.824219 333.699219 234.027344 334.890625 237.355469 335.703125 C 241.65625 336.753906 245.984375 337.683594 250.308594 338.636719 C 254.636719 339.589844 258.921875 340.699219 263.132812 342.085938 C 270.183594 344.410156 276.640625 347.859375 282.597656 352.285156 C 287.0625 355.605469 291.246094 359.261719 295.429688 362.921875 C 297.179688 364.457031 298.933594 365.980469 300.78125 367.59375 C 300.160156 368.304688 299.5625 368.988281 298.925781 369.714844 C 298.222656 369.113281 297.597656 368.582031 296.96875 368.046875 C 292.773438 364.457031 288.636719 360.800781 284.371094 357.304688 C 277.875 351.976562 270.746094 347.726562 262.753906 345.007812 C 258.054688 343.410156 253.265625 342.175781 248.421875 341.105469 C 243.882812 340.101562 239.34375 339.074219 234.828125 337.957031 C 232.273438 337.324219 229.832031 336.332031 227.515625 335.066406 C 225.417969 333.921875 223.527344 332.53125 222.121094 330.554688 C 221.25 329.332031 220.339844 328.136719 219.46875 326.914062 C 218.625 325.71875 217.871094 324.449219 216.960938 323.308594 C 215.585938 321.578125 214.652344 319.632812 213.871094 317.589844 C 212.144531 313.085938 210.898438 308.449219 210.09375 303.699219 C 209.164062 298.175781 208.710938 292.617188 208.972656 286.992188 C 209.226562 281.589844 209.234375 276.179688 209.269531 270.769531 C 209.296875 266.101562 209.742188 261.476562 210.480469 256.871094 C 211.644531 249.609375 212.585938 242.304688 214.503906 235.1875 C 215.722656 230.660156 216.90625 226.125 218.363281 221.660156 C 221.335938 212.558594 225.191406 203.867188 230.042969 195.617188 C 233.140625 190.355469 236.839844 185.535156 240.773438 180.882812 C 242.785156 178.503906 244.808594 176.132812 246.882812 173.804688 C 256.230469 163.339844 264.546875 152.074219 272.726562 140.699219 C 275.226562 137.222656 277.742188 133.757812 280.140625 130.214844 C 281.609375 128.042969 282.980469 125.785156 284.195312 123.460938 C 286.894531 118.285156 287.644531 112.714844 287.179688 106.945312 C 286.792969 102.160156 285.609375 97.550781 283.964844 93.054688 C 281.351562 85.882812 277.808594 79.207031 273.308594 73.035156 C 273.070312 72.707031 272.8125 72.382812 272.507812 71.980469 C 270.796875 74.25 269.132812 76.449219 267.390625 78.753906 C 267.601562 79.070312 267.835938 79.441406 268.078125 79.804688 C 272.339844 86.148438 275.65625 92.9375 277.695312 100.316406 C 278.792969 104.28125 279.402344 108.3125 279 112.453125 C 278.742188 115.105469 278.054688 117.628906 276.804688 119.972656 C 275.921875 121.625 275.003906 123.273438 273.933594 124.808594 C 265.792969 136.484375 257.554688 148.09375 248.578125 159.148438 C 244.488281 164.191406 240.210938 169.085938 235.898438 173.945312 C 225.519531 185.644531 217.980469 198.980469 212.449219 213.558594 C 210.675781 218.238281 209.261719 223.019531 207.910156 227.808594 C 206.488281 232.859375 205.550781 238.046875 204.390625 243.171875 C 203.554688 246.871094 203.046875 250.625 202.527344 254.378906 C 202.171875 256.945312 201.660156 259.488281 201.398438 262.058594 C 201.023438 265.71875 200.730469 269.390625 200.566406 273.0625 C 200.359375 277.714844 200.128906 282.375 200.242188 287.019531 C 200.515625 298.148438 202.089844 309.070312 205.882812 319.609375 C 209.011719 328.316406 214.386719 335.332031 221.621094 340.976562 C 222.761719 341.863281 224.105469 342.523438 225.414062 343.160156 C 229.355469 345.074219 233.554688 346.230469 237.804688 347.195312 C 242.820312 348.332031 247.863281 349.34375 252.847656 350.601562 C 256.039062 351.410156 259.1875 352.457031 262.285156 353.585938 C 267.507812 355.492188 272.21875 358.355469 276.667969 361.671875 C 281.429688 365.21875 285.839844 369.191406 290.3125 373.089844 C 291.382812 374.027344 292.457031 374.964844 293.605469 375.964844 C 293.003906 376.691406 292.441406 377.375 291.828125 378.113281 C 291.4375 377.800781 291.117188 377.554688 290.808594 377.292969 C 287.230469 374.199219 283.675781 371.074219 280.0625 368.019531 C 278.316406 366.542969 276.480469 365.164062 274.65625 363.785156 C 268.085938 358.824219 260.71875 355.527344 252.777344 353.523438 C 247.867188 352.285156 242.898438 351.285156 237.96875 350.121094 C 235.195312 349.464844 232.425781 348.765625 229.699219 347.949219 C 223.570312 346.113281 218.226562 342.976562 213.839844 338.257812 C 212.621094 336.949219 213.046875 337.074219 211.375 337.6875 C 200.605469 341.644531 189.46875 343.003906 178.050781 342.476562 C 166.878906 341.960938 156.21875 339.460938 146.230469 334.34375 C 145.578125 334.007812 145.082031 334.050781 144.453125 334.347656 C 138.761719 337.03125 132.867188 339.121094 126.671875 340.308594 C 123.679688 340.878906 120.660156 341.1875 117.617188 341.328125 C 103.359375 342.007812 90.132812 338.449219 77.867188 331.351562 C 60.210938 321.128906 46.535156 307 37.144531 288.832031 C 33.730469 282.21875 31.28125 275.238281 30.167969 267.863281 C 28.5625 257.269531 28.914062 246.816406 32.988281 236.726562 C 33.734375 234.886719 34.597656 233.09375 35.445312 231.1875 C 35.191406 230.933594 34.914062 230.632812 34.621094 230.355469 C 30.277344 226.246094 26.597656 221.628906 23.863281 216.285156 C 20.554688 209.824219 18.886719 202.992188 18.78125 195.707031 C 18.625 184.878906 22.191406 175.371094 28.648438 166.863281 C 30.644531 164.238281 32.925781 161.828125 35.125 159.363281 C 37.300781 156.929688 39.589844 154.59375 41.742188 152.136719 C 46.125 147.128906 49.445312 141.503906 51.28125 135.070312 C 51.980469 132.609375 52.578125 130.105469 52.332031 127.523438 C 51.78125 121.707031 49.464844 116.730469 44.886719 112.996094 C 42.710938 111.21875 40.363281 109.648438 38.046875 108.050781 C 34.675781 105.730469 31.265625 103.46875 27.875 101.175781 C 27.570312 100.96875 27.28125 100.730469 26.851562 100.40625 C 27.546875 99.722656 28.195312 99.082031 28.875 98.410156 C 29.085938 98.53125 29.246094 98.613281 29.394531 98.710938 C 32.761719 100.976562 36.148438 103.203125 39.476562 105.515625 C 41.972656 107.25 44.484375 108.980469 46.828125 110.90625 C 51.066406 114.390625 53.753906 118.859375 54.699219 124.308594 C 55.429688 128.539062 54.984375 132.691406 53.773438 136.777344 C 52.253906 141.917969 49.816406 146.605469 46.496094 150.789062 C 44.28125 153.578125 41.828125 156.179688 39.457031 158.84375 C 37.136719 161.453125 34.714844 163.972656 32.464844 166.640625 C 28.332031 171.550781 25.308594 177.101562 23.339844 183.210938 C 20.5 192.019531 20.882812 200.75 24.03125 209.394531 C 26.617188 216.503906 30.699219 222.648438 36.125 227.90625 C 36.3125 228.089844 36.507812 228.261719 36.710938 228.429688 C 36.761719 228.476562 36.84375 228.484375 36.941406 228.519531 C 38.460938 226.3125 39.988281 224.097656 41.558594 221.8125 C 41.269531 221.511719 40.988281 221.222656 40.710938 220.925781 C 35.308594 215.234375 31.664062 208.625 30.148438 200.878906 C 28.9375 194.671875 29.792969 188.703125 32.144531 182.894531 C 34.054688 178.179688 36.761719 173.960938 40.15625 170.191406 C 42.894531 167.148438 45.699219 164.167969 48.480469 161.164062 C 52.820312 156.480469 56.535156 151.363281 59.199219 145.53125 C 61.691406 140.070312 63.246094 134.386719 63.207031 128.339844 C 63.15625 119.503906 59.941406 112.027344 53.550781 105.925781 C 51.207031 103.691406 48.613281 101.769531 45.925781 99.96875 C 42.648438 97.777344 39.359375 95.605469 36.078125 93.421875 C 35.738281 93.191406 35.414062 92.941406 34.957031 92.613281 C 35.714844 91.941406 36.40625 91.332031 37.105469 90.714844 C 37.296875 90.804688 37.4375 90.851562 37.558594 90.929688 C 40.722656 93.023438 43.882812 95.121094 47.042969 97.214844 C 50.652344 99.609375 54.003906 102.308594 57.023438 105.429688 C 62.757812 111.347656 65.527344 118.425781 65.84375 126.636719 C 66.226562 136.460938 63.425781 145.320312 58.144531 153.46875 C 56.699219 155.699219 55.082031 157.839844 53.359375 159.863281 C 51.050781 162.582031 48.542969 165.125 46.160156 167.78125 C 44.179688 169.988281 42.175781 172.179688 40.339844 174.507812 C 37.121094 178.585938 34.863281 183.183594 33.375 188.171875 C 32.007812 192.761719 32 197.324219 33.261719 201.941406 C 35.019531 208.375 38.183594 214.003906 42.675781 218.910156 C 42.898438 219.152344 43.152344 219.367188 43.441406 219.644531 C 43.765625 219.292969 44.039062 218.992188 44.3125 218.6875 C 50.945312 211.320312 58.574219 205.285156 67.597656 201.070312 C 76.941406 196.703125 86.738281 195.058594 96.980469 196.03125 C 102.050781 196.515625 106.8125 198.046875 111.3125 200.429688 C 115.3125 202.542969 118.980469 205.152344 122.507812 207.964844 C 123.945312 209.113281 125.355469 210.289062 126.863281 211.519531 C 130.558594 208.8125 133.480469 205.378906 136.375 201.714844 C 135.835938 201.507812 135.429688 201.339844 135.019531 201.195312 C 131.265625 199.871094 127.558594 198.429688 123.992188 196.644531 C 120.105469 194.699219 116.574219 192.28125 113.472656 189.199219 C 109.691406 185.445312 107.234375 181.007812 106.34375 175.796875 C 105.085938 168.421875 105.375 161.136719 108.183594 154.078125 C 110.238281 148.917969 113.589844 144.75 117.914062 141.335938 C 121.273438 138.683594 125.1875 137.324219 129.378906 136.734375 C 134.503906 136.011719 139.648438 136.097656 144.773438 136.628906 C 148.503906 137.011719 152.203125 137.679688 155.914062 138.21875 C 156.097656 138.242188 156.285156 138.253906 156.460938 138.269531 C 156.855469 137.09375 157.132812 117.023438 156.769531 115.035156 C 155.859375 115.132812 154.941406 115.246094 154.023438 115.328125 C 144.667969 116.160156 135.519531 115.203125 126.578125 112.265625 C 117.414062 109.257812 108.945312 104.863281 100.886719 99.625 C 92.261719 94.019531 84.332031 87.53125 76.863281 80.488281 C 72.222656 76.109375 67.753906 71.542969 63.210938 67.0625 C 62.972656 66.824219 62.757812 66.566406 62.457031 66.234375 C 63.097656 65.59375 63.71875 64.96875 64.53125 64.15625 C 64.902344 64.632812 65.171875 65.042969 65.503906 65.390625 C 73.09375 73.320312 81.023438 80.886719 89.566406 87.789062 C 98.152344 94.726562 107.300781 100.800781 117.328125 105.476562 C 123.714844 108.457031 130.324219 110.769531 137.277344 112.03125 C 143.117188 113.089844 148.964844 113.238281 154.875 112.515625 C 158.160156 112.117188 161.25 111.203125 164.320312 110.078125 C 166.117188 109.421875 167.921875 108.792969 169.71875 108.125 C 171.386719 107.503906 172.910156 106.640625 174.1875 105.367188 C 174.527344 105.027344 174.945312 104.75 175.351562 104.488281 C 179.261719 101.964844 183.160156 99.417969 187.101562 96.941406 C 190.023438 95.105469 192.964844 93.285156 195.976562 91.601562 C 197.703125 90.636719 199.558594 89.867188 201.414062 89.171875 C 206.164062 87.386719 210.90625 87.613281 215.59375 89.472656 C 217.628906 90.28125 219.523438 91.347656 221.292969 92.636719 C 221.589844 92.855469 221.898438 93.0625 222.257812 93.3125 C 224.652344 91.890625 227.035156 90.480469 229.476562 89.035156 C 229.371094 88.847656 229.320312 88.664062 229.199219 88.554688 C 223.269531 83.242188 216.449219 80 208.386719 79.765625 C 204.421875 79.652344 200.644531 80.597656 196.988281 82.070312 C 194.054688 83.25 191.253906 84.699219 188.566406 86.355469 C 185.691406 88.128906 182.875 89.996094 180.015625 91.792969 C 176.804688 93.8125 173.601562 95.839844 170.355469 97.792969 C 166.738281 99.972656 162.894531 101.660156 158.851562 102.886719 C 157.3125 103.351562 155.800781 103.976562 154.222656 104.253906 C 148.953125 105.191406 143.679688 104.914062 138.4375 103.925781 C 130.085938 102.351562 122.34375 99.136719 114.921875 95.097656 C 105.675781 90.066406 97.273438 83.835938 89.351562 76.9375 C 82.945312 71.359375 76.855469 65.453125 70.996094 59.308594 C 70.816406 59.117188 70.648438 58.917969 70.371094 58.605469 C 71.03125 57.996094 71.671875 57.398438 72.394531 56.730469 C 72.761719 57.105469 73.070312 57.417969 73.375 57.734375 C 80.683594 65.414062 88.378906 72.679688 96.65625 79.3125 C 104.742188 85.792969 113.351562 91.457031 122.800781 95.777344 C 128.453125 98.359375 134.300781 100.335938 140.433594 101.464844 C 145.566406 102.410156 150.65625 102.425781 155.726562 101.105469 C 156.226562 100.976562 156.722656 100.8125 157.253906 100.65625 C 157.351562 99.253906 157.4375 97.90625 157.542969 96.5625 C 157.992188 90.714844 158.800781 84.925781 160.316406 79.242188 C 163.664062 66.664062 171.382812 57.621094 182.707031 51.515625 C 188.808594 48.222656 195.378906 46.253906 202.171875 45.015625 C 211.519531 43.308594 220.921875 43.148438 230.320312 44.367188 C 241.6875 45.839844 252.175781 49.648438 261.359375 56.675781 C 262.101562 57.242188 262.828125 57.828125 263.640625 58.46875 C 263.808594 58.15625 263.96875 57.917969 264.074219 57.660156 C 265.011719 55.355469 265.675781 52.976562 266.042969 50.511719 C 266.378906 48.285156 265.9375 46.167969 265.117188 44.121094 C 264.148438 41.707031 262.664062 39.667969 260.566406 38.082031 C 256.921875 35.324219 252.8125 33.527344 248.46875 32.230469 C 243.074219 30.617188 237.542969 29.820312 231.925781 29.765625 C 227.867188 29.726562 223.835938 30.246094 219.828125 30.898438 C 211.066406 32.332031 202.558594 34.78125 194.035156 37.207031 C 186.710938 39.292969 179.378906 41.363281 172.007812 43.273438 C 165.75 44.894531 159.367188 45.871094 152.90625 46.300781 C 140.648438 47.109375 129 44.867188 117.933594 39.519531 C 112.613281 36.953125 107.511719 34.023438 102.65625 30.652344 C 102.386719 30.464844 102.132812 30.253906 101.769531 29.976562 C 102.539062 29.316406 103.242188 28.710938 103.984375 28.074219 C 104.402344 28.351562 104.777344 28.597656 105.144531 28.84375 C 112.378906 33.699219 120.019531 37.738281 128.292969 40.539062 C 136.746094 43.402344 145.398438 44.316406 154.273438 43.496094 C 162.382812 42.746094 170.285156 40.96875 178.101562 38.800781 C 186.023438 36.605469 193.902344 34.269531 201.816406 32.054688 C 208 30.328125 214.253906 28.894531 220.617188 27.984375 C 230.511719 26.574219 240.308594 26.835938 249.953125 29.679688 C 253.097656 30.605469 256.117188 31.839844 258.949219 33.503906 C 260.671875 34.511719 262.273438 35.683594 263.730469 37.054688 C 267.777344 40.867188 269.285156 45.585938 268.722656 51.039062 C 268.324219 54.953125 267.085938 58.574219 264.953125 61.894531 C 264.023438 63.347656 263.125 64.824219 262.28125 66.332031 C 259.539062 71.214844 255.921875 75.347656 251.484375 78.730469 C 248.742188 80.816406 245.921875 82.839844 242.972656 84.617188 C 238.472656 87.328125 233.824219 89.789062 229.253906 92.378906 C 226.835938 93.746094 224.289062 94.949219 222.074219 96.597656 C 211.507812 104.46875 204.96875 110.089844 199.234375 126.265625 C 197.144531 132.152344 195.746094 138.222656 194.492188 144.332031 C 194.4375 144.585938 194.417969 144.847656 194.363281 145.238281 C 197.105469 145.578125 199.804688 145.75 202.582031 145.46875 C 202.886719 144.105469 203.175781 142.789062 203.472656 141.472656 C 204.601562 136.488281 205.984375 131.585938 207.738281 126.777344 C 211.535156 116.390625 218.300781 108.570312 227.835938 103.054688 C 233.816406 99.597656 239.761719 96.085938 245.707031 92.566406 C 251.019531 89.425781 256.089844 85.945312 260.582031 81.679688 C 260.796875 81.472656 261.027344 81.257812 261.289062 81.128906 C 263.113281 80.226562 264.308594 78.6875 265.425781 77.074219 C 267.175781 74.542969 268.898438 71.988281 270.667969 69.46875 C 271.644531 68.078125 272.433594 66.605469 273.054688 65.019531 C 274.082031 62.398438 275.214844 59.820312 275.917969 57.082031 C 277 52.847656 277.367188 48.570312 276.597656 44.246094 C 275.605469 38.65625 272.773438 34.117188 268.5625 30.390625 C 264.945312 27.183594 260.773438 24.917969 256.289062 23.199219 C 250.710938 21.0625 244.921875 19.871094 238.988281 19.300781 C 229.8125 18.417969 220.773438 19.375 211.792969 21.222656 C 203.144531 23 194.691406 25.519531 186.226562 27.992188 C 179.167969 30.054688 172.105469 32.109375 164.894531 33.609375 C 160.332031 34.558594 155.734375 35.25 151.078125 35.527344 C 142.957031 36.007812 135.160156 34.585938 127.613281 31.601562 C 121.796875 29.300781 116.3125 26.371094 111.074219 22.960938 C 110.886719 22.839844 110.710938 22.699219 110.386719 22.46875 C 111.128906 21.785156 111.828125 21.144531 112.554688 20.480469 C 113 20.753906 113.378906 20.988281 113.757812 21.226562 C 120.535156 25.472656 127.648438 28.984375 135.378906 31.144531 C 139.191406 32.210938 143.074219 32.859375 147.03125 32.976562 C 150.191406 33.066406 153.328125 32.703125 156.453125 32.261719 C 164.953125 31.066406 173.191406 28.75 181.425781 26.414062 C 189.1875 24.214844 196.945312 22.003906 204.742188 19.9375 C 210.773438 18.34375 216.910156 17.222656 223.132812 16.722656 C 233.496094 15.894531 243.769531 16.253906 253.808594 19.296875 C 257.050781 20.28125 260.175781 21.542969 263.171875 23.132812 C 267.273438 25.3125 270.765625 28.234375 273.804688 31.71875 C 277.609375 36.085938 279.371094 41.214844 279.621094 46.980469 C 279.960938 54.664062 278.144531 61.789062 274.449219 68.484375 C 274.359375 68.648438 274.277344 68.816406 274.199219 68.988281 C 274.167969 69.054688 274.15625 69.132812 274.113281 69.300781 C 274.34375 69.605469 274.609375 69.964844 274.878906 70.320312 C 281.199219 78.683594 285.878906 87.863281 288.492188 98.039062 C 290.128906 104.414062 290.375 110.875 289.324219 117.371094 C 288.832031 120.402344 287.734375 123.246094 286.234375 125.910156 C 285.128906 127.871094 283.96875 129.8125 282.679688 131.652344 C 275.445312 141.988281 268.074219 152.230469 260.320312 162.191406 C 255.636719 168.210938 250.535156 173.875 245.558594 179.648438 C 244.652344 180.703125 243.765625 181.773438 242.859375 182.824219 C 233.394531 193.773438 226.8125 206.347656 221.980469 219.90625 C 221.894531 220.148438 221.835938 220.398438 221.773438 220.609375 C 221.855469 220.71875 221.890625 220.800781 221.949219 220.832031 C 225.300781 222.519531 228.660156 224.191406 232.222656 225.410156 C 233.214844 225.746094 234.253906 225.941406 235.261719 226.234375 C 236.0625 226.46875 236.820312 226.347656 237.574219 226.070312 C 239.335938 225.421875 240.835938 224.386719 242.066406 222.972656 C 243.898438 220.867188 245.402344 218.53125 246.792969 216.121094 C 249.59375 211.265625 251.882812 206.160156 254.1875 201.0625 C 256.957031 194.941406 259.707031 188.808594 262.5625 182.726562 C 264.546875 178.511719 266.847656 174.464844 269.441406 170.585938 C 271.808594 167.039062 274.570312 163.832031 277.683594 160.921875 C 281.671875 157.183594 286.234375 154.550781 291.71875 153.820312 C 298.691406 152.890625 305.5 153.539062 312.0625 156.199219 C 317.773438 158.515625 322.828125 161.824219 327.238281 166.125 C 329.445312 168.277344 331.550781 170.515625 333.335938 173.042969 C 336.679688 177.796875 338.980469 182.980469 339.480469 188.8125 C 340.007812 194.960938 339.492188 201.027344 337.621094 206.960938 C 335.503906 213.664062 332.4375 219.921875 328.835938 225.925781 C 327.078125 228.855469 325.171875 231.691406 323.332031 234.570312 C 323.113281 234.914062 322.886719 235.253906 322.640625 235.636719 C 322.789062 235.800781 322.894531 235.949219 323.03125 236.0625 C 331.257812 242.898438 338.636719 250.589844 345.65625 258.636719 C 353.828125 268.007812 361.449219 277.832031 369.035156 287.679688 C 370.957031 290.175781 372.859375 292.691406 374.863281 295.316406 C 374.15625 295.964844 373.484375 296.582031 372.742188 297.261719 C 372.40625 296.828125 372.128906 296.484375 371.859375 296.132812 C 363.703125 285.394531 355.492188 274.703125 346.820312 264.375 C 340.34375 256.660156 333.585938 249.207031 326.085938 242.464844 C 323.796875 240.40625 321.484375 238.371094 319.128906 236.390625 C 316.128906 233.867188 312.792969 231.839844 309.367188 229.957031 C 305.3125 227.726562 301.144531 225.769531 296.695312 224.433594 C 287.773438 221.757812 278.910156 222.109375 270.089844 224.886719 C 262.980469 227.125 256.441406 230.539062 250.199219 234.558594 C 249.445312 235.046875 248.777344 235.667969 248.0625 236.210938 C 247.644531 236.527344 247.226562 236.859375 246.769531 237.113281 C 242.277344 239.609375 238.410156 242.957031 234.382812 246.09375 C 233.914062 246.460938 233.382812 246.746094 232.886719 247.078125 C 232.480469 247.347656 232.054688 247.59375 231.683594 247.90625 C 228.496094 250.605469 225.300781 253.296875 222.148438 256.039062 C 221.019531 257.019531 220 258.128906 218.929688 259.179688 C 217.074219 260.988281 215.246094 262.820312 213.351562 264.585938 C 212.75 265.152344 212.296875 265.757812 212.089844 266.535156 C 211.914062 267.183594 211.738281 267.847656 211.691406 268.515625 C 211.488281 271.363281 211.328125 274.210938 211.160156 277.058594 C 211.148438 277.234375 211.179688 277.414062 211.207031 277.8125 Z M 47.183594 239.3125 C 46.988281 239.699219 46.796875 240.019531 46.660156 240.359375 C 46.011719 242 45.292969 243.617188 44.753906 245.292969 C 43.171875 250.238281 42.390625 255.289062 42.945312 260.5 C 43.605469 266.710938 45.222656 272.671875 47.738281 278.375 C 54.800781 294.386719 65.742188 307.097656 80.4375 316.566406 C 88.238281 321.597656 96.617188 325.273438 105.78125 327.019531 C 108.847656 327.601562 111.941406 328.039062 115.0625 327.941406 C 120.660156 327.761719 126.0625 326.515625 131.328125 324.640625 C 131.597656 324.546875 131.851562 324.410156 132.253906 324.234375 C 131.871094 323.824219 131.574219 323.503906 131.269531 323.191406 C 126.128906 317.929688 122.5625 311.796875 121.320312 304.492188 C 119.972656 296.605469 120.269531 288.75 122.757812 281.109375 C 127.605469 266.210938 137.167969 255.140625 150.640625 247.363281 C 154.960938 244.871094 159.640625 243.207031 164.574219 242.414062 C 170.941406 241.394531 177.292969 241.667969 183.601562 242.992188 C 189.019531 244.128906 194.226562 245.9375 199.386719 247.898438 C 199.761719 248.039062 200.144531 248.160156 200.5 248.285156 C 201.902344 241.566406 203.28125 234.941406 204.683594 228.230469 C 196.96875 224.675781 189.152344 221.246094 181.234375 218.011719 C 180.953125 218.363281 180.734375 218.621094 180.535156 218.886719 C 177.804688 222.582031 174.703125 225.949219 171.367188 229.101562 C 168.847656 231.480469 166.117188 233.578125 163.136719 235.363281 C 157.859375 238.523438 152.144531 239.621094 146.058594 239.140625 C 142.15625 238.828125 138.609375 237.484375 135.242188 235.578125 C 132.355469 233.945312 129.707031 231.976562 127.121094 229.910156 C 126.777344 229.632812 126.421875 229.367188 126.082031 229.101562 C 125.875 229.199219 125.734375 229.25 125.605469 229.324219 C 117.816406 233.84375 109.527344 237.257812 101.0625 240.261719 C 91.875 243.523438 82.480469 245.574219 72.640625 245.375 C 64.097656 245.203125 55.972656 243.445312 48.257812 239.78125 C 47.925781 239.625 47.585938 239.488281 47.183594 239.3125 Z M 202.878906 159.050781 C 202.769531 159.574219 202.667969 160.042969 202.574219 160.515625 C 201.535156 165.589844 200.566406 170.679688 199.441406 175.734375 C 197.152344 185.996094 193.863281 195.914062 189.007812 205.269531 C 188.910156 205.457031 188.855469 205.667969 188.773438 205.894531 C 195.539062 208.84375 202.226562 211.757812 208.984375 214.703125 C 209.195312 214.144531 209.382812 213.660156 209.5625 213.171875 C 214.570312 199.488281 221.300781 186.777344 230.78125 175.625 C 232.167969 173.992188 233.515625 172.328125 234.941406 170.734375 C 243.039062 161.695312 250.667969 152.269531 257.78125 142.4375 C 262.179688 136.351562 266.546875 130.242188 270.898438 124.125 C 272.511719 121.859375 273.972656 119.492188 275.007812 116.894531 C 276.0625 114.25 276.703125 111.507812 276.398438 108.648438 C 276.199219 106.785156 275.914062 104.917969 275.464844 103.101562 C 273.554688 95.324219 270.15625 88.207031 265.75 81.550781 C 265.628906 81.371094 265.472656 81.214844 265.273438 80.976562 C 264.917969 81.324219 264.589844 81.621094 264.28125 81.941406 C 260.128906 86.28125 255.441406 89.957031 250.351562 93.121094 C 247.449219 94.921875 244.484375 96.617188 241.546875 98.363281 C 241.203125 98.566406 240.867188 98.777344 240.515625 98.996094 C 240.960938 100.1875 241.398438 101.265625 241.769531 102.363281 C 243.976562 108.878906 244.101562 115.597656 243.246094 122.300781 C 241.796875 133.613281 236.582031 142.980469 227.941406 150.425781 C 224.71875 153.203125 221.101562 155.300781 217.078125 156.683594 C 213.6875 157.847656 210.191406 158.5 206.625 158.792969 C 205.394531 158.890625 204.164062 158.964844 202.878906 159.050781 Z M 142.265625 332.277344 C 141.917969 331.972656 141.816406 331.871094 141.703125 331.785156 C 139.535156 330.175781 137.351562 328.585938 135.203125 326.949219 C 134.789062 326.636719 134.453125 326.5625 133.976562 326.742188 C 132.855469 327.164062 131.722656 327.566406 130.582031 327.9375 C 124.082031 330.046875 117.425781 330.960938 110.597656 330.433594 C 103.757812 329.910156 97.222656 328.15625 90.929688 325.460938 C 80.257812 320.886719 71.023438 314.222656 62.941406 305.933594 C 55.101562 297.894531 48.808594 288.804688 44.574219 278.359375 C 41.59375 271.007812 39.839844 263.394531 40.167969 255.417969 C 40.394531 249.902344 41.417969 244.582031 44.039062 239.597656 C 45.613281 236.597656 47.328125 233.707031 49.101562 230.832031 C 51.417969 227.085938 54.285156 223.847656 57.554688 220.9375 C 64.832031 214.460938 73.070312 209.769531 82.628906 207.589844 C 91.816406 205.492188 100.5 206.585938 108.613281 211.628906 C 112.585938 214.097656 116.152344 217.082031 119.75 220.027344 C 122.5625 222.332031 125.191406 224.863281 127.90625 227.289062 C 129.394531 228.613281 130.894531 229.921875 132.796875 230.652344 C 133.175781 230.796875 133.492188 231.09375 133.851562 231.292969 C 135.882812 232.425781 137.859375 233.679688 139.964844 234.640625 C 144.636719 236.769531 149.503906 237.160156 154.484375 235.84375 C 158.800781 234.699219 162.597656 232.542969 166.113281 229.84375 C 169.738281 227.0625 172.894531 223.804688 175.792969 220.289062 C 176.820312 219.042969 177.914062 217.847656 178.890625 216.570312 C 179.730469 215.472656 180.464844 214.289062 181.222656 213.128906 C 181.714844 212.378906 182.128906 211.574219 182.652344 210.847656 C 184.699219 207.996094 186.464844 205 187.601562 201.660156 C 187.734375 201.269531 187.917969 200.898438 188.09375 200.527344 C 190.792969 194.808594 192.957031 188.894531 194.695312 182.820312 C 196.851562 175.304688 198.378906 167.648438 199.832031 159.976562 C 199.882812 159.699219 199.835938 159.40625 199.835938 159.078125 C 197.140625 158.976562 194.492188 158.875 191.777344 158.773438 C 191.683594 159.195312 191.601562 159.554688 191.523438 159.914062 C 190.550781 164.542969 189.65625 169.1875 188.589844 173.796875 C 186.589844 182.453125 183.828125 190.855469 179.816406 198.8125 C 179.3125 199.816406 178.753906 200.800781 178.128906 201.734375 C 175.386719 205.863281 172.554688 209.929688 169.863281 214.089844 C 166.996094 218.527344 163.214844 222.003906 158.886719 224.933594 C 157.011719 226.203125 154.984375 227.164062 152.804688 227.816406 C 149.324219 228.859375 145.976562 228.476562 142.730469 226.9375 C 142.460938 226.808594 142.171875 226.675781 141.96875 226.46875 C 140.453125 224.921875 138.589844 223.847656 136.789062 222.699219 C 133.839844 220.820312 131.046875 218.734375 128.367188 216.484375 C 125.523438 214.097656 122.640625 211.746094 119.726562 209.445312 C 116.328125 206.765625 112.738281 204.378906 108.851562 202.453125 C 103.582031 199.847656 98.011719 198.519531 92.136719 198.421875 C 87.21875 198.339844 82.402344 199.019531 77.691406 200.410156 C 65.375 204.039062 55.113281 210.902344 46.5625 220.40625 C 45.28125 221.828125 44.0625 223.308594 42.890625 224.820312 C 39.457031 229.253906 36.972656 234.199219 35.042969 239.441406 C 32.390625 246.648438 31.5 254.085938 32.136719 261.710938 C 32.75 269.074219 34.683594 276.113281 37.59375 282.886719 C 42.742188 294.859375 50.253906 305.179688 59.628906 314.167969 C 68.253906 322.433594 77.988281 329.039062 89.085938 333.554688 C 95.84375 336.300781 102.84375 338.058594 110.128906 338.605469 C 118.375 339.222656 126.382812 338.042969 134.175781 335.355469 C 136.832031 334.441406 139.429688 333.363281 142.265625 332.277344 Z M 311.09375 227.613281 C 311.300781 227.351562 311.421875 227.210938 311.527344 227.058594 C 315.03125 221.898438 318.292969 216.59375 320.992188 210.960938 C 323.058594 206.648438 324.796875 202.21875 325.691406 197.5 C 326.03125 195.695312 326.371094 193.886719 326.148438 192.023438 C 325.699219 188.257812 324.351562 184.820312 322.277344 181.679688 C 317.140625 173.902344 309.761719 169.449219 300.832031 167.359375 C 299.226562 166.980469 297.597656 166.777344 295.921875 167.019531 C 291.679688 167.628906 288.226562 169.675781 285.351562 172.761719 C 283.246094 175.019531 281.519531 177.574219 279.902344 180.199219 C 277.613281 183.910156 275.589844 187.765625 273.773438 191.726562 C 270.898438 198.003906 268.101562 204.316406 265.246094 210.605469 C 262.667969 216.28125 259.953125 221.890625 256.464844 227.082031 C 256.414062 227.15625 256.429688 227.277344 256.402344 227.476562 C 256.808594 227.285156 257.140625 227.140625 257.464844 226.976562 C 260.507812 225.417969 263.636719 224.054688 266.859375 222.914062 C 275.589844 219.832031 284.519531 219.195312 293.605469 220.789062 C 299.429688 221.808594 304.808594 224.101562 309.949219 226.980469 C 310.308594 227.179688 310.664062 227.375 311.09375 227.613281 Z M 145.871094 317.773438 C 146.40625 317.46875 146.761719 317.265625 147.117188 317.058594 C 153.035156 313.546875 158.628906 309.566406 164.046875 305.332031 C 175.691406 296.238281 186.453125 286.144531 197.199219 276.03125 C 197.660156 275.597656 197.769531 275.105469 197.804688 274.527344 C 197.949219 272.128906 198.105469 269.730469 198.28125 267.335938 C 198.394531 265.804688 198.546875 264.28125 198.691406 262.671875 C 197.082031 262.035156 195.519531 261.40625 193.949219 260.800781 C 188.515625 258.710938 183.023438 256.792969 177.261719 255.8125 C 175.007812 255.429688 172.746094 255.085938 170.433594 255.378906 C 167.019531 255.808594 163.734375 256.703125 160.597656 258.097656 C 147.945312 263.71875 139.917969 273.441406 135.679688 286.453125 C 134.582031 289.820312 133.882812 293.296875 134.097656 296.867188 C 134.511719 303.796875 137.296875 309.695312 142.175781 314.59375 C 143.308594 315.730469 144.609375 316.699219 145.871094 317.773438 Z M 218.355469 231.394531 C 218.660156 231.578125 218.808594 231.6875 218.976562 231.761719 C 221.300781 232.816406 223.605469 233.917969 225.957031 234.902344 C 228.523438 235.980469 231.183594 236.804688 233.964844 237.113281 C 237.882812 237.542969 241.613281 237.097656 244.863281 234.585938 C 245.335938 234.222656 245.835938 233.882812 246.355469 233.578125 C 248.5 232.324219 250.175781 230.5625 251.707031 228.648438 C 254.132812 225.613281 256.21875 222.351562 257.933594 218.878906 C 260.507812 213.664062 262.988281 208.398438 265.398438 203.105469 C 268.277344 196.785156 270.984375 190.386719 274.238281 184.242188 C 276.066406 180.789062 278.046875 177.421875 280.394531 174.289062 C 282.109375 171.996094 284 169.867188 286.253906 168.078125 C 288.621094 166.195312 291.269531 164.941406 294.273438 164.472656 C 296.980469 164.054688 299.671875 164.191406 302.328125 164.792969 C 311.066406 166.761719 318.113281 171.40625 323.566406 178.460938 C 328.410156 184.726562 329.917969 191.753906 328.167969 199.5 C 327.0625 204.40625 325.222656 209.03125 322.992188 213.515625 C 320.464844 218.601562 317.488281 223.425781 314.3125 228.128906 C 314.09375 228.457031 313.886719 228.792969 313.667969 229.136719 C 315.941406 230.734375 318.105469 232.261719 320.300781 233.804688 C 320.554688 233.460938 320.765625 233.199219 320.945312 232.917969 C 322.992188 229.679688 325.097656 226.480469 327.054688 223.1875 C 329.816406 218.53125 332.183594 213.675781 334.03125 208.574219 C 335.636719 204.136719 336.761719 199.59375 337.015625 194.867188 C 337.371094 188.28125 335.699219 182.191406 332.203125 176.644531 C 326.140625 167.03125 317.539062 160.710938 306.6875 157.441406 C 302.660156 156.230469 298.53125 155.804688 294.328125 156.226562 C 288.746094 156.789062 283.96875 159.117188 279.808594 162.808594 C 276.523438 165.722656 273.847656 169.148438 271.457031 172.808594 C 268.925781 176.679688 266.691406 180.726562 264.742188 184.914062 C 261.84375 191.144531 259.046875 197.417969 256.214844 203.675781 C 253.996094 208.566406 251.761719 213.449219 249.027344 218.078125 C 247.632812 220.445312 246.117188 222.722656 244.265625 224.765625 C 243.203125 225.9375 242.042969 227 240.683594 227.832031 C 238.949219 228.890625 237.0625 229.359375 235.074219 228.980469 C 233.3125 228.648438 231.53125 228.257812 229.867188 227.609375 C 227.175781 226.566406 224.578125 225.289062 221.9375 224.113281 C 221.574219 223.949219 221.210938 223.789062 220.707031 223.566406 C 219.90625 226.234375 219.144531 228.773438 218.355469 231.394531 Z M 200.164062 251.363281 C 199.816406 251.207031 199.621094 251.097656 199.410156 251.023438 C 195.332031 249.617188 191.285156 248.117188 187.171875 246.828125 C 182.859375 245.480469 178.425781 244.683594 173.902344 244.472656 C 167.308594 244.164062 161.054688 245.613281 155.128906 248.394531 C 142.042969 254.527344 132.816406 264.445312 127.105469 277.640625 C 123.695312 285.519531 122.390625 293.746094 123.746094 302.300781 C 124.878906 309.453125 128.085938 315.589844 132.929688 320.90625 C 134.066406 322.152344 135.21875 323.398438 136.5 324.488281 C 138.207031 325.945312 140.011719 327.300781 141.851562 328.59375 C 143.011719 329.410156 144.367188 329.949219 145.523438 330.773438 C 147.628906 332.269531 149.929688 333.3125 152.347656 334.171875 C 154.960938 335.101562 157.546875 336.117188 160.148438 337.078125 C 160.601562 337.25 161.078125 337.386719 161.554688 337.472656 C 163.101562 337.75 164.65625 338.023438 166.210938 338.253906 C 169.550781 338.753906 172.878906 339.386719 176.234375 339.679688 C 187.742188 340.683594 198.917969 339.058594 209.78125 335.171875 C 210.078125 335.066406 210.359375 334.914062 210.617188 334.796875 C 209.113281 332.429688 207.667969 330.15625 206.179688 327.8125 C 205.902344 327.886719 205.578125 327.960938 205.265625 328.0625 C 195.734375 331.261719 185.964844 332.429688 175.957031 331.445312 C 167.410156 330.601562 159.179688 328.625 151.5625 324.480469 C 148.75 322.953125 146.023438 321.324219 143.617188 319.191406 C 142.75 318.417969 141.824219 317.710938 140.925781 316.972656 C 140.289062 316.449219 139.589844 315.980469 139.03125 315.382812 C 135.9375 312.066406 133.640625 308.285156 132.445312 303.867188 C 131.191406 299.214844 131.113281 294.523438 131.949219 289.804688 C 133.132812 283.140625 135.835938 277.117188 139.746094 271.636719 C 144.984375 264.292969 151.617188 258.628906 160.019531 255.183594 C 164.304688 253.429688 168.746094 252.433594 173.40625 252.644531 C 176.457031 252.78125 179.449219 253.277344 182.410156 254.003906 C 187.671875 255.296875 192.734375 257.183594 197.761719 259.167969 C 198.136719 259.3125 198.511719 259.449219 199.035156 259.644531 C 199.421875 256.820312 199.789062 254.125 200.164062 251.363281 Z M 256.1875 70.417969 C 255.59375 69.914062 255.152344 69.511719 254.6875 69.140625 C 243.828125 60.523438 231.230469 57.164062 217.621094 57.078125 C 212.011719 57.042969 206.484375 57.984375 201.054688 59.417969 C 195.394531 60.917969 190.035156 63.085938 185.144531 66.375 C 181.210938 69.023438 178.253906 72.476562 176.183594 76.71875 C 175.789062 77.527344 175.414062 78.347656 175.074219 79.179688 C 173.226562 83.695312 172.242188 88.425781 171.574219 93.234375 C 171.558594 93.355469 171.609375 93.484375 171.648438 93.710938 C 172.109375 93.4375 172.464844 93.238281 172.804688 93.015625 C 176.457031 90.644531 180.09375 88.25 183.753906 85.894531 C 186.976562 83.820312 190.292969 81.921875 193.757812 80.269531 C 200.367188 77.121094 207.300781 76.441406 214.417969 77.691406 C 220.972656 78.84375 226.488281 82.09375 231.28125 86.636719 C 231.578125 86.917969 231.875 87.191406 232.175781 87.46875 C 232.445312 87.347656 232.660156 87.269531 232.851562 87.160156 C 236.347656 85.109375 239.875 83.109375 243.324219 80.988281 C 246.914062 78.785156 250.292969 76.28125 253.351562 73.367188 C 254.296875 72.464844 255.167969 71.484375 256.1875 70.417969 Z M 191.476562 144.96875 C 191.8125 143.367188 192.125 141.871094 192.449219 140.375 C 193.78125 134.207031 195.359375 128.105469 197.636719 122.207031 C 200.582031 114.566406 204.789062 107.769531 210.808594 102.140625 C 213.257812 99.855469 215.828125 97.730469 218.566406 95.808594 C 218.890625 95.582031 219.199219 95.332031 219.582031 95.042969 C 219.277344 94.804688 219.089844 94.632812 218.875 94.492188 C 216.179688 92.722656 213.273438 91.46875 210.09375 90.855469 C 208.671875 90.582031 207.273438 90.585938 205.855469 90.882812 C 203.636719 91.351562 201.53125 92.128906 199.484375 93.082031 C 196.28125 94.574219 193.269531 96.417969 190.300781 98.324219 C 183.921875 102.417969 177.746094 106.84375 170.9375 110.234375 C 170.5625 110.417969 170.339844 110.664062 170.371094 111.101562 C 170.382812 111.289062 170.367188 111.476562 170.363281 111.664062 C 170.265625 121.203125 170.167969 130.738281 170.078125 140.277344 C 170.074219 140.53125 170.121094 140.785156 170.15625 141.125 C 177.214844 142.609375 184.238281 144.125 191.476562 144.96875 Z M 302.664062 239.046875 C 302.46875 238.910156 302.355469 238.8125 302.226562 238.742188 C 298.578125 236.777344 294.777344 235.195312 290.722656 234.28125 C 288.15625 233.703125 285.570312 233.242188 282.917969 233.472656 C 279.382812 233.777344 275.953125 234.558594 272.601562 235.703125 C 266.636719 237.746094 261.128906 240.710938 255.835938 244.101562 C 248.136719 249.035156 241.042969 254.757812 234.132812 260.722656 C 233.949219 260.886719 233.796875 261.085938 233.554688 261.347656 C 233.875 261.492188 234.097656 261.613281 234.335938 261.695312 C 239.902344 263.632812 245.53125 265.351562 251.335938 266.4375 C 254.65625 267.0625 258 267.5625 261.394531 267.476562 C 267.417969 267.328125 272.976562 265.550781 278.1875 262.585938 C 282.023438 260.40625 285.503906 257.742188 288.761719 254.78125 C 293.867188 250.144531 298.222656 244.832031 302.46875 239.425781 C 302.535156 239.339844 302.570312 239.230469 302.664062 239.046875 Z M 174.167969 203.285156 C 173.5625 203.039062 173.1875 202.875 172.804688 202.734375 C 166.175781 200.328125 159.558594 197.894531 152.914062 195.539062 C 149.132812 194.195312 145.304688 192.988281 141.503906 191.710938 C 136.945312 190.183594 132.433594 188.535156 128.164062 186.300781 C 126.09375 185.21875 124.128906 183.980469 122.351562 182.460938 C 120.128906 180.558594 118.566406 178.214844 117.625 175.449219 C 116.664062 172.636719 116.347656 169.738281 116.523438 166.789062 C 116.792969 162.238281 118.070312 158.003906 120.660156 154.214844 C 123.011719 150.777344 126.199219 148.578125 130.304688 147.710938 C 133.792969 146.976562 137.308594 146.953125 140.839844 147.191406 C 145.601562 147.511719 150.300781 148.316406 154.988281 149.203125 C 155.335938 149.269531 155.691406 149.296875 156.164062 149.355469 C 156.3125 146.578125 156.453125 143.933594 156.597656 141.25 C 156.1875 141.148438 155.90625 141.054688 155.617188 141.003906 C 153.660156 140.660156 151.703125 140.296875 149.738281 139.988281 C 144.460938 139.164062 139.160156 138.648438 133.8125 138.984375 C 130.914062 139.167969 128.070312 139.664062 125.328125 140.640625 C 119.8125 142.605469 115.75 146.308594 112.828125 151.300781 C 109.328125 157.277344 107.910156 163.765625 108.402344 170.65625 C 109.003906 179.003906 112.515625 185.761719 119.484375 190.59375 C 122.304688 192.546875 125.3125 194.160156 128.457031 195.507812 C 133.703125 197.753906 139.0625 199.699219 144.519531 201.375 C 147.421875 202.265625 150.292969 203.257812 153.082031 204.484375 C 154.480469 205.101562 155.984375 205.488281 157.445312 205.960938 C 158.730469 206.375 160.035156 206.726562 161.304688 207.183594 C 163.707031 208.039062 166.09375 208.949219 168.484375 209.835938 C 168.828125 209.964844 169.179688 210.074219 169.652344 210.238281 C 171.144531 207.941406 172.609375 205.6875 174.167969 203.285156 Z M 144.628906 189.660156 C 151.785156 178.222656 154.824219 165.585938 155.886719 152.257812 C 154.921875 152.0625 154.046875 151.878906 153.167969 151.714844 C 148.113281 150.757812 143.046875 149.890625 137.890625 149.710938 C 134.980469 149.609375 132.121094 149.992188 129.363281 150.964844 C 126.625 151.929688 124.425781 153.582031 122.875 156.097656 C 121.382812 158.519531 120.363281 161.117188 119.6875 163.871094 C 118.652344 168.101562 119.1875 172.140625 121.015625 176.046875 C 121.957031 178.050781 123.242188 179.800781 125.140625 181 C 126.949219 182.140625 128.753906 183.296875 130.652344 184.265625 C 134.976562 186.476562 139.566406 188.027344 144.15625 189.574219 C 144.289062 189.617188 144.441406 189.625 144.628906 189.660156 Z M 160.015625 99.679688 C 160.476562 99.527344 160.804688 99.457031 161.101562 99.316406 C 163.03125 98.398438 164.972656 97.496094 166.875 96.523438 C 168.570312 95.660156 168.542969 95.625 168.757812 93.738281 C 169.234375 89.476562 169.996094 85.273438 171.277344 81.171875 C 172.902344 75.96875 175.378906 71.265625 179.347656 67.4375 C 183.332031 63.59375 188.011719 60.859375 193.164062 58.945312 C 206.121094 54.128906 219.402344 53.160156 232.933594 55.925781 C 242.101562 57.800781 250.402344 61.566406 257.503906 67.773438 C 257.632812 67.886719 257.800781 67.957031 258.023438 68.097656 C 259.679688 65.886719 261.199219 63.679688 262.378906 61.226562 C 262.054688 60.9375 261.8125 60.707031 261.554688 60.496094 C 259.144531 58.511719 256.597656 56.722656 253.890625 55.164062 C 245.320312 50.226562 236.035156 47.578125 226.242188 46.625 C 217.011719 45.726562 207.875 46.378906 198.859375 48.601562 C 192.179688 50.25 185.828125 52.675781 180.042969 56.464844 C 173.566406 60.703125 168.585938 66.242188 165.5 73.382812 C 164.609375 75.441406 163.839844 77.570312 163.1875 79.722656 C 161.511719 85.242188 160.722656 90.929688 160.234375 96.664062 C 160.152344 97.625 160.09375 98.585938 160.015625 99.679688 Z M 230.804688 104.511719 C 230.992188 105.058594 231.125 105.449219 231.261719 105.835938 C 232.074219 108.074219 232.578125 110.386719 232.746094 112.753906 C 233.347656 121.234375 231.15625 128.96875 226.355469 135.957031 C 223.941406 139.46875 220.933594 142.386719 217.203125 144.484375 C 213.679688 146.464844 209.890625 147.628906 205.855469 147.820312 C 203.007812 147.957031 200.148438 147.933594 197.300781 147.894531 C 194.941406 147.855469 192.574219 147.800781 190.230469 147.554688 C 184.253906 146.929688 178.371094 145.707031 172.488281 144.492188 C 171.6875 144.328125 170.886719 144.171875 169.972656 143.992188 C 169.828125 146.785156 169.691406 149.464844 169.550781 152.191406 C 169.996094 152.300781 170.351562 152.402344 170.714844 152.480469 C 172 152.746094 173.28125 153.039062 174.574219 153.261719 C 179.566406 154.125 184.546875 155.058594 189.558594 155.777344 C 193.984375 156.417969 198.449219 156.472656 202.925781 156.332031 C 207.890625 156.175781 212.703125 155.335938 217.3125 153.488281 C 224.351562 150.671875 229.707031 145.8125 233.8125 139.53125 C 238.023438 133.082031 240.390625 125.996094 240.941406 118.308594 C 241.351562 112.5625 240.578125 106.996094 238.414062 101.644531 C 238.261719 101.269531 238.078125 100.90625 237.855469 100.421875 C 235.476562 101.804688 233.179688 103.132812 230.804688 104.511719 Z M 114.496094 219.339844 C 114.222656 219.144531 114.097656 219.0625 113.980469 218.96875 C 111.019531 216.652344 107.953125 214.496094 104.613281 212.75 C 98.210938 209.410156 91.519531 208.433594 84.429688 210.0625 C 73.738281 212.515625 64.683594 217.851562 56.882812 225.457031 C 56.273438 226.050781 55.726562 226.714844 55.160156 227.332031 C 55.273438 227.480469 55.308594 227.558594 55.367188 227.589844 C 55.597656 227.714844 55.828125 227.839844 56.066406 227.945312 C 59.074219 229.246094 62.171875 230.25 65.378906 230.925781 C 68.394531 231.558594 71.445312 232.019531 74.53125 231.933594 C 78.292969 231.824219 82 231.222656 85.652344 230.324219 C 95.390625 227.929688 104.636719 224.207031 113.640625 219.851562 C 113.867188 219.742188 114.078125 219.59375 114.496094 219.339844 Z M 188.898438 158.476562 C 186.625 158.144531 184.441406 157.847656 182.265625 157.496094 C 180.117188 157.148438 177.980469 156.726562 175.835938 156.371094 C 173.679688 156.007812 171.558594 155.410156 169.324219 155.160156 C 169.277344 155.507812 169.25 155.726562 169.222656 155.949219 C 168.941406 158.371094 168.695312 160.796875 168.367188 163.214844 C 166.9375 173.878906 163.902344 184.035156 158.652344 193.476562 C 158.515625 193.722656 158.433594 193.996094 158.3125 194.289062 C 164.09375 196.410156 169.785156 198.5 175.570312 200.625 C 175.785156 200.238281 175.992188 199.890625 176.179688 199.535156 C 178.925781 194.304688 181.195312 188.878906 183.007812 183.257812 C 185.449219 175.707031 187.113281 167.972656 188.617188 160.195312 C 188.71875 159.648438 188.796875 159.101562 188.898438 158.476562 Z M 305.242188 240.574219 C 304.957031 240.933594 304.699219 241.253906 304.445312 241.574219 C 300.515625 246.5625 296.410156 251.394531 291.8125 255.789062 C 287.808594 259.617188 283.503906 263.039062 278.613281 265.6875 C 273.117188 268.664062 267.261719 270.144531 261.015625 270.136719 C 256.675781 270.128906 252.410156 269.5625 248.175781 268.667969 C 242.660156 267.503906 237.285156 265.835938 231.996094 263.910156 C 231.15625 263.605469 230.632812 263.726562 230.011719 264.316406 C 228.347656 265.886719 226.621094 267.394531 224.929688 268.9375 C 224.6875 269.152344 224.476562 269.40625 224.175781 269.722656 C 224.503906 269.871094 224.726562 269.988281 224.960938 270.074219 C 230.371094 272.105469 235.832031 273.996094 241.425781 275.464844 C 247.722656 277.121094 254.09375 278.253906 260.636719 278.308594 C 268.867188 278.382812 276.519531 276.339844 283.648438 272.253906 C 288.167969 269.664062 292.261719 266.515625 296.085938 262.996094 C 301.824219 257.714844 306.851562 251.800781 311.628906 245.660156 C 311.738281 245.515625 311.820312 245.351562 311.910156 245.210938 C 311.074219 244.265625 306.957031 241.394531 305.242188 240.574219 Z M 160.539062 325.15625 C 160.816406 325.3125 160.90625 325.378906 161.011719 325.421875 C 161.253906 325.515625 161.503906 325.597656 161.753906 325.679688 C 168.148438 327.765625 174.710938 328.953125 181.429688 329.121094 C 189.359375 329.324219 197.03125 327.804688 204.519531 325.265625 C 204.652344 325.21875 204.757812 325.101562 204.910156 324.996094 C 204.425781 323.789062 203.933594 322.617188 203.484375 321.425781 C 200.4375 313.316406 198.863281 304.886719 198.082031 296.289062 C 198.027344 295.714844 197.957031 295.140625 197.871094 294.34375 C 185.929688 305.386719 173.988281 316.054688 160.539062 325.15625 Z M 159.535156 114.578125 C 159.535156 115.042969 159.539062 115.492188 159.535156 115.941406 C 159.472656 122.882812 159.40625 129.828125 159.339844 136.773438 C 159.332031 137.335938 159.292969 137.898438 159.257812 138.460938 C 159.144531 140.144531 158.921875 141.828125 158.929688 143.511719 C 158.945312 149.042969 158.488281 154.535156 157.789062 160.011719 C 156.433594 170.589844 153.394531 180.613281 147.960938 189.851562 C 147.816406 190.09375 147.726562 190.371094 147.578125 190.699219 C 150.21875 191.582031 152.769531 192.4375 155.351562 193.300781 C 155.570312 192.941406 155.761719 192.664062 155.921875 192.375 C 157.726562 189.078125 159.335938 185.691406 160.703125 182.191406 C 164.253906 173.117188 165.851562 163.617188 166.734375 153.988281 C 167.207031 148.839844 167.34375 143.648438 167.449219 138.472656 C 167.621094 129.953125 167.640625 121.429688 167.71875 112.910156 C 167.722656 112.589844 167.675781 112.269531 167.652344 111.910156 C 164.929688 112.808594 162.304688 113.671875 159.535156 114.578125 Z M 117.035156 221.429688 C 116.648438 221.613281 116.347656 221.753906 116.046875 221.90625 C 108.398438 225.785156 100.460938 228.957031 92.273438 231.496094 C 87.132812 233.089844 81.890625 234.222656 76.5 234.503906 C 68.671875 234.910156 61.1875 233.449219 54.042969 230.234375 C 53.742188 230.101562 53.433594 229.996094 53.15625 229.890625 C 51.652344 231.453125 49.011719 235.527344 48.726562 236.71875 C 48.910156 236.820312 49.097656 236.9375 49.296875 237.035156 C 55.851562 240.226562 62.769531 242.082031 70.039062 242.613281 C 76.042969 243.054688 81.972656 242.492188 87.8125 241.113281 C 100.050781 238.222656 111.605469 233.550781 122.671875 227.628906 C 122.957031 227.476562 123.21875 227.273438 123.617188 227.015625 C 121.363281 225.105469 119.203125 223.269531 117.035156 221.429688 Z M 205.5625 145.257812 C 207.117188 144.925781 208.445312 144.703125 209.742188 144.355469 C 215.699219 142.761719 220.496094 139.515625 223.964844 134.351562 C 226.722656 130.242188 228.554688 125.769531 229.605469 120.941406 C 230.605469 116.339844 230.296875 111.84375 228.75 107.414062 C 228.617188 107.035156 228.453125 106.664062 228.253906 106.152344 C 227.226562 106.851562 226.3125 107.484375 225.386719 108.101562 C 219.402344 112.082031 215.109375 117.476562 212.121094 123.964844 C 211.699219 124.882812 211.285156 125.808594 210.898438 126.746094 C 208.691406 132.109375 207.210938 137.695312 205.945312 143.34375 C 205.824219 143.882812 205.726562 144.429688 205.5625 145.257812 Z M 148.769531 319.535156 C 148.894531 319.683594 148.933594 319.753906 148.992188 319.792969 C 151.367188 321.324219 153.886719 322.566406 156.46875 323.703125 C 156.945312 323.914062 157.316406 323.804688 157.71875 323.527344 C 159.445312 322.332031 161.207031 321.183594 162.921875 319.964844 C 175.132812 311.289062 186.238281 301.292969 197.191406 291.121094 C 197.601562 290.746094 197.683594 290.335938 197.675781 289.824219 C 197.644531 286.707031 197.632812 283.589844 197.605469 280.472656 C 197.605469 280.246094 197.53125 280.019531 197.464844 279.648438 C 196.988281 280.09375 196.632812 280.417969 196.28125 280.75 C 189.390625 287.238281 182.460938 293.675781 175.269531 299.828125 C 167.042969 306.867188 158.546875 313.539062 149.277344 319.171875 C 149.121094 319.265625 148.976562 319.382812 148.769531 319.535156 Z M 167.730469 212.664062 C 161.871094 210.425781 156.148438 208.335938 150.320312 206.363281 C 146.621094 211.53125 142.480469 216.199219 137.792969 220.523438 C 139.859375 222.050781 141.902344 223.273438 144.046875 224.359375 C 147.21875 225.96875 150.328125 225.964844 153.558594 224.5 C 159.320312 221.886719 163.773438 217.746094 167.730469 212.664062 Z M 217.613281 234.367188 C 215.96875 240.84375 214.679688 247.203125 213.726562 253.683594 C 215.136719 254.253906 216.441406 254.722656 217.691406 255.316406 C 218.515625 255.707031 219.0625 255.605469 219.753906 254.976562 C 225.210938 249.996094 230.8125 245.183594 236.640625 240.636719 C 236.863281 240.464844 237.0625 240.261719 237.273438 240.074219 C 236.78125 239.871094 236.347656 239.863281 235.914062 239.871094 C 233.113281 239.929688 230.363281 239.550781 227.738281 238.59375 C 224.996094 237.589844 222.316406 236.417969 219.617188 235.304688 C 219 235.050781 218.402344 234.738281 217.613281 234.367188 Z M 208 217.542969 C 201.09375 214.378906 194.246094 211.371094 187.316406 208.527344 C 185.839844 210.921875 184.4375 213.203125 183.023438 215.503906 C 190.582031 218.796875 198.054688 222.054688 205.609375 225.347656 C 206.40625 222.738281 207.183594 220.207031 208 217.542969 Z M 147.46875 205.375 C 144.65625 204.445312 142.003906 203.566406 139.28125 202.664062 C 136.234375 206.601562 132.972656 210.25 129.085938 213.46875 C 131.273438 215.292969 133.335938 217.019531 135.457031 218.789062 C 140.039062 214.804688 143.84375 210.300781 147.46875 205.375 Z M 213.265625 256.640625 C 213.058594 258.261719 212.734375 259.667969 212.714844 261.386719 C 214.058594 260.148438 215.183594 259.105469 216.449219 257.941406 C 215.296875 257.46875 214.355469 257.085938 213.265625 256.640625 Z M 213.265625 256.640625 "/></g><g clip-rule="nonzero" clip-path="url(#156eb52dca)"><path style=" stroke:none;fill-rule:nonzero;fill:#000000;fill-opacity:1;" d="M 52.6875 54.84375 C 50.921875 54.761719 49.621094 54.652344 49 51.945312 C 47.785156 46.648438 48.222656 43.984375 52.367188 40.277344 C 56.171875 36.871094 60.976562 33.933594 61.492188 30.488281 C 62.367188 24.664062 54.886719 24.527344 51.726562 26.390625 C 47.617188 28.816406 52.554688 33.023438 51.292969 35.632812 C 50.316406 37.65625 46.203125 39.175781 44.5 37.222656 C 42.046875 34.421875 41.910156 29.390625 44.054688 26.039062 C 47.074219 21.839844 53.5625 20.289062 58.363281 20.371094 C 64.269531 20.46875 70.171875 22.507812 70.203125 28.777344 C 70.226562 33.707031 67.28125 37.5 63.625 40.46875 C 58.550781 44.578125 56.109375 44.707031 56.21875 51.199219 C 56.257812 53.671875 54.519531 54.929688 52.6875 54.84375 Z M 52.6875 54.84375 "/></g><g clip-rule="nonzero" clip-path="url(#64718995f7)"><path style=" stroke:none;fill-rule:nonzero;fill:#000000;fill-opacity:1;" d="M 49.578125 63.550781 C 50.253906 66.085938 52.335938 66.761719 53.742188 66.71875 C 55.261719 66.679688 57.722656 65.394531 58.222656 63.605469 C 59.453125 59.167969 54.609375 57.960938 52.605469 58.273438 C 50.761719 58.757812 49.027344 61.492188 49.578125 63.550781 Z M 49.578125 63.550781 "/></g><g clip-rule="nonzero" clip-path="url(#8ff1d037bf)"><g clip-rule="nonzero" clip-path="url(#72065d3489)"><g clip-rule="nonzero" clip-path="url(#1d6b4bbbbf)"><g clip-rule="nonzero" clip-path="url(#5f25771c25)"><g clip-rule="nonzero" clip-path="url(#a85b2de329)"><path style=" stroke:none;fill-rule:nonzero;fill:#000000;fill-opacity:1;" d="M 17.433594 85.109375 L 17.433594 85.105469 Z M 34.214844 63.230469 L 34.265625 62.8125 L 34.304688 62.386719 L 34.3125 62.242188 L 34.351562 62.007812 L 34.390625 61.746094 L 34.425781 61.480469 L 34.453125 61.210938 L 34.480469 60.9375 L 34.5 60.667969 L 34.519531 60.390625 L 34.53125 60.113281 L 34.539062 59.835938 L 34.542969 59.554688 L 34.539062 59.269531 L 34.53125 58.984375 L 34.519531 58.699219 L 34.503906 58.40625 L 34.480469 58.117188 L 34.457031 57.820312 L 34.421875 57.523438 L 34.386719 57.222656 L 34.34375 56.917969 L 34.289062 56.609375 L 34.226562 56.308594 L 34.160156 56.011719 L 34.082031 55.71875 L 34 55.4375 L 33.90625 55.15625 L 33.804688 54.878906 L 33.699219 54.613281 L 33.582031 54.347656 L 33.457031 54.089844 L 33.328125 53.839844 L 33.191406 53.597656 L 33.042969 53.355469 L 32.890625 53.125 L 32.734375 52.902344 L 32.566406 52.679688 L 32.394531 52.472656 L 32.214844 52.269531 L 32.03125 52.070312 L 31.839844 51.882812 L 31.644531 51.703125 L 31.441406 51.53125 L 31.234375 51.367188 L 31.027344 51.210938 L 30.808594 51.058594 L 30.589844 50.917969 L 30.367188 50.785156 L 30.140625 50.660156 L 29.914062 50.542969 L 29.683594 50.433594 L 29.445312 50.332031 L 29.210938 50.238281 L 28.972656 50.152344 L 28.730469 50.074219 L 28.492188 50.003906 L 28.25 49.9375 L 28.003906 49.878906 L 27.511719 49.785156 L 27.453125 49.777344 L 27.226562 49.640625 L 26.980469 49.5 L 26.730469 49.363281 L 26.480469 49.238281 L 26.226562 49.117188 L 25.96875 49 L 25.707031 48.894531 L 25.449219 48.792969 L 25.179688 48.699219 L 24.914062 48.613281 L 24.648438 48.53125 L 24.375 48.460938 L 24.101562 48.398438 L 23.824219 48.339844 L 23.546875 48.292969 L 23.265625 48.253906 L 22.988281 48.222656 L 22.703125 48.199219 L 22.421875 48.1875 L 22.136719 48.183594 L 21.847656 48.191406 L 21.566406 48.207031 L 21.28125 48.230469 L 20.992188 48.261719 L 20.707031 48.308594 L 20.421875 48.363281 L 20.136719 48.425781 L 19.855469 48.5 L 19.574219 48.582031 L 19.292969 48.679688 L 19.015625 48.78125 L 18.742188 48.894531 L 18.464844 49.023438 L 18.195312 49.15625 L 17.929688 49.300781 L 17.664062 49.457031 L 17.40625 49.617188 L 17.152344 49.792969 L 16.898438 49.976562 L 16.648438 50.167969 L 16.40625 50.371094 L 16.164062 50.582031 L 15.929688 50.800781 L 15.703125 51.03125 L 15.472656 51.273438 L 15.253906 51.519531 L 15.035156 51.773438 L 14.824219 52.039062 L 14.617188 52.316406 L 14.414062 52.597656 L 14.214844 52.890625 L 14.023438 53.191406 L 13.835938 53.496094 L 13.648438 53.816406 L 13.472656 54.144531 L 13.296875 54.476562 L 13.128906 54.824219 L 12.957031 55.1875 L 12.792969 55.574219 L 12.644531 55.972656 L 12.511719 56.363281 L 12.398438 56.746094 L 12.296875 57.121094 L 12.207031 57.488281 L 12.125 57.84375 L 12.050781 58.195312 L 11.980469 58.53125 L 11.910156 58.855469 L 11.847656 59.167969 L 11.78125 59.460938 L 11.777344 59.480469 L 11.761719 59.519531 L 11.734375 59.59375 L 11.695312 59.691406 L 11.644531 59.808594 L 11.585938 59.9375 L 11.441406 60.253906 L 11.277344 60.613281 L 11.121094 60.992188 L 11.027344 61.242188 L 10.945312 61.488281 L 10.875 61.753906 L 10.8125 62.050781 L 10.773438 62.398438 L 10.765625 62.710938 L 10.78125 62.988281 L 10.816406 63.21875 L 10.871094 63.449219 L 10.949219 63.691406 L 11.058594 63.945312 L 11.191406 64.1875 L 11.347656 64.417969 L 11.535156 64.640625 L 11.738281 64.835938 L 11.949219 65.007812 L 12.179688 65.15625 L 12.398438 65.277344 L 12.617188 65.375 L 12.851562 65.457031 L 13.085938 65.523438 L 13.324219 65.566406 L 13.574219 65.597656 L 13.8125 65.605469 L 14.046875 65.59375 L 14.28125 65.566406 L 14.496094 65.527344 L 14.703125 65.472656 L 14.902344 65.410156 L 15.132812 65.316406 L 15.410156 65.179688 L 15.707031 65 L 15.960938 64.816406 L 16.1875 64.632812 L 16.394531 64.441406 L 16.578125 64.253906 L 16.75 64.070312 L 16.910156 63.882812 L 17.054688 63.703125 L 17.195312 63.527344 L 17.324219 63.351562 L 17.449219 63.179688 L 17.472656 63.148438 C 18.539062 63.039062 19.40625 62.1875 19.496094 61.089844 L 19.511719 60.890625 L 19.523438 60.664062 L 19.53125 60.449219 L 19.535156 60.242188 L 19.535156 60.042969 L 19.53125 59.84375 L 19.523438 59.492188 L 19.523438 59.441406 L 19.550781 59.371094 L 19.628906 59.183594 L 19.6875 59.035156 L 19.753906 58.890625 L 19.835938 58.703125 L 19.917969 58.519531 L 19.957031 58.433594 L 20.003906 58.355469 L 20.203125 58.003906 L 20.265625 57.898438 L 20.347656 57.777344 L 20.464844 57.605469 L 20.585938 57.4375 L 20.835938 57.09375 L 21.101562 56.757812 L 21.238281 56.59375 L 21.378906 56.429688 L 21.519531 56.269531 L 21.808594 55.957031 L 21.957031 55.808594 L 22.253906 55.527344 L 22.40625 55.394531 L 22.554688 55.269531 L 22.707031 55.148438 L 22.855469 55.03125 L 23.003906 54.925781 L 23.152344 54.828125 L 23.292969 54.738281 L 23.359375 54.710938 L 23.507812 54.652344 L 23.65625 54.597656 L 23.804688 54.546875 L 23.957031 54.496094 L 24.105469 54.453125 L 24.402344 54.375 L 24.554688 54.339844 L 24.703125 54.308594 L 24.851562 54.28125 L 24.996094 54.257812 L 25.054688 54.25 L 25.105469 54.257812 L 25.207031 54.277344 L 25.320312 54.304688 L 25.4375 54.339844 L 25.550781 54.382812 L 25.707031 54.453125 L 25.746094 54.472656 L 25.808594 54.507812 L 25.878906 54.546875 L 26.019531 54.632812 L 26.097656 54.683594 L 26.171875 54.738281 L 26.25 54.796875 L 26.328125 54.859375 L 26.410156 54.925781 L 26.492188 54.996094 L 26.558594 55.054688 L 26.679688 55.167969 L 26.769531 55.265625 L 26.863281 55.375 L 26.953125 55.488281 L 27.035156 55.605469 L 27.121094 55.734375 L 27.199219 55.867188 L 27.273438 56.007812 L 27.347656 56.15625 L 27.417969 56.3125 L 27.480469 56.476562 L 27.542969 56.644531 L 27.652344 57.003906 L 27.699219 57.195312 L 27.742188 57.390625 L 27.78125 57.589844 L 27.816406 57.792969 L 27.847656 58.003906 L 27.871094 58.21875 L 27.890625 58.4375 L 27.90625 58.65625 L 27.917969 58.878906 L 27.921875 59.105469 L 27.925781 59.335938 L 27.921875 59.566406 L 27.914062 59.796875 L 27.902344 60.03125 L 27.886719 60.261719 L 27.867188 60.496094 L 27.8125 60.957031 L 27.78125 61.1875 L 27.746094 61.417969 L 27.707031 61.640625 L 27.664062 61.863281 L 27.617188 62.085938 L 27.570312 62.300781 L 27.519531 62.515625 L 27.464844 62.726562 L 27.40625 62.929688 L 27.347656 63.128906 L 27.289062 63.320312 L 27.226562 63.507812 L 27.164062 63.6875 L 27.101562 63.859375 L 27.035156 64.027344 L 26.976562 64.164062 L 26.886719 64.363281 L 26.792969 64.546875 L 26.683594 64.738281 L 26.558594 64.9375 L 26.425781 65.136719 L 26.277344 65.34375 L 26.117188 65.554688 L 25.945312 65.765625 L 25.765625 65.984375 L 25.574219 66.203125 L 25.375 66.425781 L 25.171875 66.648438 L 24.953125 66.875 L 24.734375 67.105469 L 24.515625 67.332031 L 24.0625 67.800781 L 23.601562 68.277344 L 23.371094 68.523438 L 23.144531 68.769531 L 22.917969 69.023438 L 22.695312 69.28125 L 22.484375 69.539062 L 22.347656 69.710938 L 22.214844 69.875 L 22.089844 70.039062 L 21.960938 70.207031 L 21.835938 70.375 L 21.710938 70.539062 L 21.46875 70.875 L 21.351562 71.042969 L 21.230469 71.210938 L 21.117188 71.382812 L 21 71.550781 L 20.890625 71.722656 L 20.777344 71.894531 L 20.667969 72.066406 L 20.351562 72.582031 L 20.25 72.753906 L 20.148438 72.929688 L 19.949219 73.28125 L 19.855469 73.457031 L 19.757812 73.640625 L 19.578125 73.988281 L 19.402344 74.347656 L 19.230469 74.703125 L 19.070312 75.066406 L 18.914062 75.429688 L 18.769531 75.796875 L 18.628906 76.164062 L 18.496094 76.535156 L 18.371094 76.90625 L 18.257812 77.28125 L 18.144531 77.660156 L 18.046875 78.039062 L 17.953125 78.421875 L 17.867188 78.804688 L 17.789062 79.191406 L 17.71875 79.578125 L 17.660156 79.96875 L 17.605469 80.359375 L 17.5625 80.75 L 17.527344 81.148438 L 17.5 81.542969 L 17.480469 81.941406 L 17.476562 82.046875 L 17.425781 82.175781 L 17.351562 82.382812 L 17.28125 82.585938 L 17.210938 82.78125 L 17.140625 82.996094 L 17.078125 83.203125 L 17.019531 83.410156 L 16.964844 83.617188 L 16.910156 83.832031 L 16.863281 84.042969 L 16.824219 84.253906 L 16.789062 84.476562 L 16.761719 84.695312 L 16.738281 84.925781 L 16.730469 85.164062 L 16.730469 85.410156 L 16.75 85.667969 L 16.785156 85.949219 L 16.851562 86.238281 L 16.949219 86.546875 L 17.097656 86.882812 L 17.265625 87.167969 L 17.433594 87.394531 L 17.617188 87.601562 L 17.863281 87.820312 L 18.203125 88.046875 L 18.226562 88.058594 C 18.660156 89.035156 19.742188 89.597656 20.824219 89.347656 C 22.046875 89.0625 22.804688 87.847656 22.515625 86.632812 L 22.472656 86.441406 L 22.429688 86.273438 L 22.394531 86.109375 L 22.359375 85.941406 L 22.328125 85.777344 L 22.292969 85.609375 L 22.265625 85.441406 L 22.234375 85.277344 L 22.183594 84.953125 L 22.160156 84.792969 L 22.121094 84.464844 L 22.117188 84.4375 L 22.136719 84.273438 L 22.160156 84.070312 L 22.183594 83.878906 L 22.207031 83.710938 L 22.230469 83.550781 L 22.238281 83.496094 L 22.25 83.445312 L 22.257812 83.398438 L 22.265625 83.363281 L 22.269531 83.34375 L 22.273438 83.328125 L 22.335938 83.109375 L 22.398438 82.894531 L 22.453125 82.6875 L 22.507812 82.492188 L 22.558594 82.308594 L 22.605469 82.132812 L 22.652344 81.964844 L 22.695312 81.804688 L 22.734375 81.65625 L 22.769531 81.511719 L 22.804688 81.378906 L 22.835938 81.265625 L 22.851562 81.238281 L 22.914062 81.121094 L 22.972656 81.015625 L 23.03125 80.914062 L 23.082031 80.824219 L 23.128906 80.742188 L 23.171875 80.671875 L 23.207031 80.609375 L 23.238281 80.566406 L 23.253906 80.539062 L 23.25 80.542969 L 23.390625 80.347656 L 23.523438 80.164062 L 23.664062 79.984375 L 23.804688 79.796875 L 23.945312 79.617188 L 24.09375 79.433594 L 24.246094 79.25 L 24.394531 79.066406 L 24.550781 78.882812 L 24.707031 78.695312 L 24.867188 78.511719 L 25.027344 78.324219 L 25.191406 78.140625 L 25.359375 77.945312 L 26.199219 76.988281 L 26.378906 76.78125 L 26.554688 76.574219 L 26.882812 76.183594 L 27.058594 75.980469 L 27.265625 75.726562 L 27.472656 75.480469 L 27.683594 75.222656 L 27.898438 74.960938 L 28.117188 74.695312 L 28.335938 74.421875 L 28.5625 74.144531 L 28.785156 73.863281 L 29.011719 73.574219 L 29.238281 73.28125 L 29.355469 73.132812 L 29.46875 72.984375 L 29.585938 72.832031 L 29.703125 72.675781 L 29.816406 72.519531 L 30.035156 72.222656 L 30.15625 72.058594 L 30.273438 71.890625 L 30.488281 71.589844 L 30.609375 71.417969 L 30.726562 71.246094 L 30.832031 71.09375 L 30.933594 70.9375 L 31.046875 70.769531 L 31.160156 70.597656 L 31.378906 70.261719 L 31.695312 69.746094 L 31.796875 69.574219 L 31.902344 69.398438 L 32.003906 69.222656 L 32.105469 69.042969 L 32.203125 68.867188 L 32.300781 68.6875 L 32.394531 68.507812 L 32.492188 68.328125 L 32.585938 68.144531 L 32.765625 67.777344 L 32.855469 67.589844 L 32.941406 67.40625 L 33.027344 67.21875 L 33.109375 67.027344 L 33.191406 66.839844 L 33.269531 66.648438 L 33.417969 66.265625 L 33.496094 66.058594 L 33.628906 65.675781 L 33.753906 65.28125 L 33.871094 64.882812 L 33.976562 64.472656 L 34.070312 64.066406 L 34.148438 63.652344 L 34.214844 63.230469 "/></g></g></g></g></g><g clip-rule="nonzero" clip-path="url(#4fa71122c0)"><g clip-rule="nonzero" clip-path="url(#5b90a6e697)"><g clip-rule="nonzero" clip-path="url(#2d43ce2f05)"><g clip-rule="nonzero" clip-path="url(#87188fc0bf)"><g clip-rule="nonzero" clip-path="url(#61b5fffb58)"><path style=" stroke:none;fill-rule:nonzero;fill:#000000;fill-opacity:1;" d="M 23.792969 102.089844 L 23.808594 101.78125 L 23.808594 101.460938 L 23.78125 101.128906 L 23.730469 100.792969 L 23.644531 100.449219 L 23.53125 100.113281 L 23.394531 99.808594 L 23.242188 99.519531 L 23.070312 99.246094 L 22.882812 98.996094 L 22.6875 98.765625 L 22.480469 98.546875 L 22.269531 98.347656 L 22.160156 98.257812 L 22.152344 98.214844 L 22.042969 97.859375 L 21.851562 97.472656 L 21.589844 97.113281 L 21.257812 96.804688 L 20.878906 96.554688 L 20.511719 96.398438 L 20.164062 96.304688 L 19.839844 96.261719 L 19.527344 96.253906 L 19.214844 96.269531 L 18.871094 96.3125 L 18.546875 96.378906 L 18.230469 96.460938 L 17.917969 96.5625 L 17.621094 96.679688 L 17.335938 96.808594 L 17.050781 96.953125 L 16.78125 97.109375 L 16.519531 97.28125 L 16.265625 97.464844 L 16.019531 97.660156 L 15.785156 97.867188 L 15.558594 98.09375 L 15.34375 98.328125 L 15.140625 98.574219 L 14.945312 98.839844 L 14.765625 99.117188 L 14.605469 99.410156 L 14.457031 99.726562 L 14.332031 100.054688 L 14.226562 100.402344 L 14.152344 100.773438 L 14.113281 101.101562 L 14.105469 101.4375 L 14.136719 101.777344 L 14.222656 102.140625 L 14.378906 102.519531 L 14.617188 102.902344 L 14.910156 103.226562 L 15.238281 103.480469 L 15.578125 103.671875 L 15.886719 103.789062 L 16.160156 103.863281 L 16.414062 103.902344 L 16.628906 103.917969 L 16.816406 103.921875 L 16.921875 103.917969 L 16.917969 103.949219 L 16.90625 104.238281 L 16.917969 104.519531 L 16.953125 104.78125 L 17.023438 105.070312 L 17.148438 105.394531 L 17.355469 105.765625 L 17.648438 106.113281 L 18.015625 106.414062 L 18.445312 106.648438 L 18.851562 106.78125 L 19.230469 106.839844 L 19.570312 106.84375 L 19.84375 106.820312 L 20.054688 106.785156 L 20.261719 106.738281 L 20.453125 106.683594 L 20.636719 106.621094 L 20.820312 106.546875 L 21.039062 106.445312 L 21.316406 106.292969 L 21.621094 106.09375 L 21.890625 105.878906 L 22.136719 105.65625 L 22.367188 105.417969 L 22.574219 105.171875 L 22.757812 104.921875 L 22.933594 104.660156 L 23.085938 104.398438 L 23.226562 104.128906 L 23.351562 103.851562 L 23.460938 103.574219 L 23.558594 103.289062 L 23.640625 102.996094 L 23.707031 102.703125 L 23.757812 102.402344 L 23.792969 102.089844 "/></g></g></g></g></g><g clip-rule="nonzero" clip-path="url(#0ecd886edd)"><g clip-rule="nonzero" clip-path="url(#538a69d8fb)"><g clip-rule="nonzero" clip-path="url(#481850c7e8)"><g clip-rule="nonzero" clip-path="url(#70c6f61c45)"><path style=" stroke:none;fill-rule:nonzero;fill:#000000;fill-opacity:1;" d="M 88.609375 2.257812 C 88.667969 2.238281 88.667969 2.238281 88.726562 2.222656 C 90.847656 1.539062 92.964844 1.511719 94.996094 2.546875 C 95.054688 2.582031 95.117188 2.613281 95.179688 2.648438 C 95.222656 2.667969 95.265625 2.691406 95.3125 2.714844 C 95.355469 2.738281 95.398438 2.757812 95.441406 2.78125 C 95.484375 2.800781 95.484375 2.800781 95.523438 2.820312 C 96.507812 3.289062 97.328125 4.097656 98.082031 4.871094 C 98.105469 4.894531 98.128906 4.914062 98.152344 4.9375 C 100.160156 6.964844 101.464844 9.917969 101.980469 12.707031 C 101.988281 12.757812 101.996094 12.808594 102.007812 12.859375 C 102.371094 14.855469 102.421875 16.902344 102.167969 18.910156 C 102.148438 19.042969 102.132812 19.171875 102.117188 19.300781 C 101.96875 20.507812 101.730469 21.703125 101.425781 22.878906 C 101.390625 23.015625 101.355469 23.148438 101.324219 23.285156 C 101.199219 23.769531 101.074219 24.25 100.925781 24.730469 C 100.0625 27.558594 99.375 30.46875 100.054688 33.421875 C 100.066406 33.472656 100.078125 33.523438 100.089844 33.574219 C 100.234375 34.175781 100.433594 34.757812 100.671875 35.324219 C 100.703125 35.402344 100.734375 35.484375 100.769531 35.5625 C 101.242188 36.71875 101.890625 37.800781 102.53125 38.871094 C 102.679688 39.117188 102.828125 39.367188 102.976562 39.617188 C 103.027344 39.699219 103.078125 39.785156 103.128906 39.871094 C 103.585938 40.636719 103.8125 41.308594 103.644531 42.195312 C 103.617188 42.203125 103.589844 42.210938 103.566406 42.222656 C 103.558594 42.25 103.554688 42.277344 103.550781 42.308594 C 103.542969 42.371094 103.53125 42.433594 103.523438 42.496094 C 103.496094 42.507812 103.472656 42.515625 103.445312 42.523438 C 103.453125 42.550781 103.460938 42.574219 103.46875 42.601562 C 103.128906 43.167969 102.625 43.539062 101.992188 43.699219 C 101.460938 43.820312 100.882812 43.691406 100.417969 43.417969 C 100.390625 43.382812 100.367188 43.347656 100.339844 43.3125 C 100.3125 43.320312 100.285156 43.328125 100.261719 43.335938 C 99.800781 43.046875 99.535156 42.503906 99.269531 42.050781 C 99.234375 41.984375 99.195312 41.921875 99.15625 41.859375 C 99.078125 41.726562 99 41.59375 98.921875 41.460938 C 98.824219 41.292969 98.726562 41.125 98.628906 40.960938 C 98.25 40.3125 97.875 39.667969 97.523438 39.003906 C 97.511719 38.980469 97.496094 38.953125 97.484375 38.925781 C 97.054688 38.113281 96.671875 37.273438 96.386719 36.398438 C 96.367188 36.347656 96.351562 36.300781 96.335938 36.25 C 96.300781 36.144531 96.265625 36.039062 96.234375 35.933594 C 96.183594 35.777344 96.128906 35.625 96.078125 35.46875 C 95.785156 34.574219 95.5625 33.667969 95.457031 32.730469 C 95.449219 32.675781 95.441406 32.621094 95.4375 32.566406 C 95.148438 30.058594 95.539062 27.550781 96.210938 25.144531 C 96.226562 25.085938 96.242188 25.027344 96.257812 24.972656 C 96.292969 24.855469 96.324219 24.738281 96.355469 24.621094 C 96.441406 24.320312 96.523438 24.019531 96.605469 23.71875 C 96.675781 23.476562 96.742188 23.234375 96.808594 22.996094 C 97.632812 20.058594 98.175781 17.054688 97.726562 14 C 97.722656 13.960938 97.714844 13.921875 97.710938 13.878906 C 97.347656 11.402344 96.0625 8.667969 94.039062 7.128906 C 93.820312 6.96875 93.59375 6.824219 93.359375 6.691406 C 93.289062 6.644531 93.289062 6.644531 93.265625 6.566406 C 93.238281 6.574219 93.210938 6.582031 93.183594 6.589844 C 93.175781 6.566406 93.167969 6.539062 93.160156 6.511719 C 93.132812 6.507812 93.109375 6.507812 93.082031 6.503906 C 92.957031 6.480469 92.851562 6.433594 92.734375 6.382812 C 92.511719 6.292969 92.300781 6.230469 92.070312 6.1875 C 92.042969 6.183594 92.015625 6.179688 91.988281 6.171875 C 91.550781 6.097656 91.148438 6.164062 90.71875 6.257812 C 90.640625 6.277344 90.640625 6.277344 90.5625 6.292969 C 90.160156 6.382812 89.785156 6.496094 89.414062 6.671875 C 89.390625 6.683594 89.363281 6.695312 89.339844 6.707031 C 88.195312 7.261719 87.292969 8.203125 86.691406 9.3125 C 86.652344 9.378906 86.613281 9.441406 86.574219 9.503906 C 85.679688 11.019531 85.332031 12.933594 85.726562 14.65625 C 85.777344 14.855469 85.839844 15.046875 85.902344 15.242188 C 85.917969 15.285156 85.929688 15.328125 85.945312 15.371094 C 86.039062 15.660156 86.144531 15.941406 86.253906 16.222656 C 86.539062 16.941406 86.691406 17.542969 86.40625 18.285156 C 86.339844 18.4375 86.265625 18.585938 86.164062 18.71875 C 86.136719 18.726562 86.109375 18.734375 86.082031 18.742188 C 86.09375 18.769531 86.101562 18.796875 86.109375 18.824219 C 86.046875 18.855469 85.988281 18.890625 85.925781 18.925781 C 85.933594 18.953125 85.941406 18.980469 85.949219 19.007812 C 85.882812 19.054688 85.816406 19.105469 85.75 19.15625 C 85.714844 19.183594 85.675781 19.210938 85.640625 19.242188 C 85.199219 19.554688 84.636719 19.699219 84.101562 19.632812 C 83.886719 19.59375 83.675781 19.554688 83.476562 19.457031 C 83.46875 19.429688 83.460938 19.402344 83.453125 19.375 C 83.425781 19.386719 83.398438 19.394531 83.371094 19.402344 C 83.363281 19.375 83.355469 19.351562 83.347656 19.324219 C 83.304688 19.324219 83.261719 19.320312 83.214844 19.320312 C 82.65625 18.949219 82.390625 18.4375 82.152344 17.820312 C 82.140625 17.792969 82.132812 17.765625 82.121094 17.738281 C 80.972656 14.777344 80.84375 11.898438 81.976562 8.910156 C 81.984375 8.882812 81.996094 8.855469 82.007812 8.828125 C 82.160156 8.417969 82.351562 8.023438 82.546875 7.632812 C 82.570312 7.585938 82.59375 7.539062 82.617188 7.492188 C 82.777344 7.179688 82.953125 6.886719 83.148438 6.59375 C 83.183594 6.539062 83.214844 6.480469 83.25 6.425781 C 84.140625 5.011719 85.378906 3.882812 86.796875 3.023438 C 86.832031 3.003906 86.832031 3.003906 86.867188 2.980469 C 87.417969 2.660156 88.007812 2.449219 88.609375 2.257812 Z M 88.609375 2.257812 "/></g></g></g></g><g clip-rule="nonzero" clip-path="url(#a75d9dfa12)"><g clip-rule="nonzero" clip-path="url(#54efef5d77)"><g clip-rule="nonzero" clip-path="url(#af2a93c165)"><g clip-rule="nonzero" clip-path="url(#773389def0)"><path style=" stroke:none;fill-rule:nonzero;fill:#000000;fill-opacity:1;" d="M 106.410156 49.652344 C 106.417969 49.675781 106.429688 49.703125 106.4375 49.730469 C 106.476562 49.71875 106.515625 49.703125 106.554688 49.691406 C 106.5625 49.71875 106.574219 49.746094 106.582031 49.769531 C 106.605469 49.773438 106.628906 49.773438 106.652344 49.777344 C 106.808594 49.808594 106.945312 49.875 107.078125 49.960938 C 107.089844 49.988281 107.097656 50.015625 107.105469 50.042969 C 107.132812 50.03125 107.15625 50.023438 107.183594 50.015625 C 107.71875 50.484375 107.992188 51.042969 108.085938 51.75 C 108.113281 52.21875 107.953125 52.742188 107.664062 53.113281 C 107.640625 53.121094 107.613281 53.128906 107.585938 53.136719 C 107.59375 53.164062 107.601562 53.191406 107.613281 53.21875 C 107.550781 53.253906 107.492188 53.285156 107.425781 53.320312 C 107.4375 53.347656 107.445312 53.375 107.453125 53.402344 C 107.394531 53.449219 107.394531 53.449219 107.332031 53.5 C 107.3125 53.519531 107.289062 53.539062 107.265625 53.558594 C 106.777344 53.921875 106.1875 54.109375 105.578125 54.019531 C 105.429688 53.996094 105.285156 53.964844 105.136719 53.933594 C 105.128906 53.90625 105.121094 53.878906 105.113281 53.851562 C 105.046875 53.851562 105.046875 53.851562 104.980469 53.851562 C 104.972656 53.824219 104.964844 53.800781 104.953125 53.773438 C 104.925781 53.769531 104.898438 53.765625 104.867188 53.765625 C 104.769531 53.742188 104.769531 53.742188 104.691406 53.636719 C 104.667969 53.644531 104.640625 53.65625 104.613281 53.664062 C 104.125 53.222656 103.75 52.738281 103.679688 52.0625 C 103.667969 51.859375 103.671875 51.660156 103.679688 51.460938 C 103.707031 51.453125 103.734375 51.441406 103.761719 51.433594 C 103.75 51.363281 103.742188 51.292969 103.734375 51.222656 C 103.761719 51.214844 103.785156 51.207031 103.8125 51.195312 C 103.8125 51.167969 103.8125 51.136719 103.808594 51.109375 C 103.867188 50.6875 104.195312 50.300781 104.515625 50.050781 C 105.078125 49.671875 105.75 49.539062 106.410156 49.652344 Z M 106.410156 49.652344 "/></g></g></g></g></g></svg>