<svg xmlns="http://www.w3.org/2000/svg" xmlns:xlink="http://www.w3.org/1999/xlink" width="500" zoomAndPan="magnify" viewBox="0 0 375 374.999991" height="500" preserveAspectRatio="xMidYMid meet" version="1.2"><g id="4abf982124"><path style=" stroke:none;fill-rule:nonzero;fill:#000000;fill-opacity:1;" d="M 41.394531 174.941406 C 28.507812 174.941406 18.023438 164.464844 18.023438 151.578125 C 18.023438 138.691406 28.507812 128.207031 41.394531 128.207031 C 54.277344 128.207031 64.757812 138.691406 64.757812 151.578125 C 64.757812 164.464844 54.277344 174.941406 41.394531 174.941406 Z M 41.394531 136.578125 C 33.121094 136.578125 26.390625 143.308594 26.390625 151.578125 C 26.390625 159.84375 33.121094 166.574219 41.394531 166.574219 C 49.664062 166.574219 56.390625 159.84375 56.390625 151.578125 C 56.390625 143.308594 49.664062 136.578125 41.394531 136.578125 Z M 41.394531 136.578125 "/><path style=" stroke:none;fill-rule:nonzero;fill:#000000;fill-opacity:1;" d="M 248.582031 96.292969 C 235.699219 96.292969 225.214844 85.808594 225.214844 72.921875 C 225.214844 60.035156 235.699219 49.554688 248.582031 49.554688 C 261.464844 49.554688 271.945312 60.035156 271.945312 72.921875 C 271.945312 85.808594 261.46875 96.292969 248.582031 96.292969 Z M 248.582031 57.925781 C 240.3125 57.925781 233.582031 64.65625 233.582031 72.921875 C 233.582031 81.195312 240.3125 87.925781 248.582031 87.925781 C 256.851562 87.925781 263.574219 81.195312 263.574219 72.921875 C 263.574219 64.65625 256.851562 57.925781 248.582031 57.925781 Z M 248.582031 57.925781 "/><path style=" stroke:none;fill-rule:nonzero;fill:#000000;fill-opacity:1;" d="M 331.070312 241.386719 C 318.191406 241.386719 307.710938 230.902344 307.710938 218.015625 C 307.710938 205.136719 318.191406 194.652344 331.070312 194.652344 C 343.957031 194.652344 354.441406 205.132812 354.441406 218.015625 C 354.441406 230.902344 343.957031 241.386719 331.070312 241.386719 Z M 331.070312 203.019531 C 322.804688 203.019531 316.078125 209.746094 316.078125 218.011719 C 316.078125 226.285156 322.804688 233.015625 331.070312 233.015625 C 339.34375 233.015625 346.074219 226.285156 346.074219 218.011719 C 346.074219 209.75 339.34375 203.019531 331.070312 203.019531 Z M 331.070312 203.019531 "/><path style=" stroke:none;fill-rule:nonzero;fill:#000000;fill-opacity:1;" d="M 173.769531 197.945312 C 160.882812 197.945312 150.390625 187.460938 150.390625 174.574219 C 150.390625 161.691406 160.875 151.210938 173.769531 151.210938 C 186.648438 151.210938 197.128906 161.691406 197.128906 174.574219 C 197.128906 187.460938 186.648438 197.945312 173.769531 197.945312 Z M 173.769531 159.578125 C 165.496094 159.578125 158.765625 166.308594 158.765625 174.574219 C 158.765625 182.847656 165.496094 189.578125 173.769531 189.578125 C 182.035156 189.578125 188.761719 182.847656 188.761719 174.574219 C 188.761719 166.304688 182.03125 159.578125 173.769531 159.578125 Z M 173.769531 159.578125 "/><path style=" stroke:none;fill-rule:nonzero;fill:#000000;fill-opacity:1;" d="M 54.820312 305.402344 C 41.9375 305.402344 31.457031 294.917969 31.457031 282.03125 C 31.457031 269.144531 41.9375 258.660156 54.820312 258.660156 C 67.707031 258.660156 78.191406 269.144531 78.191406 282.03125 C 78.191406 294.917969 67.707031 305.402344 54.820312 305.402344 Z M 54.820312 267.027344 C 46.550781 267.027344 39.824219 273.757812 39.824219 282.03125 C 39.824219 290.304688 46.550781 297.035156 54.820312 297.035156 C 63.09375 297.035156 69.824219 290.304688 69.824219 282.03125 C 69.824219 273.757812 63.089844 267.027344 54.820312 267.027344 Z M 54.820312 267.027344 "/><path style=" stroke:none;fill-rule:nonzero;fill:#000000;fill-opacity:1;" d="M 291.746094 334.171875 C 278.859375 334.171875 268.375 323.691406 268.375 310.808594 C 268.375 297.921875 278.859375 287.4375 291.746094 287.4375 C 304.628906 287.4375 315.109375 297.921875 315.109375 310.808594 C 315.113281 323.691406 304.632812 334.171875 291.746094 334.171875 Z M 291.746094 295.808594 C 283.472656 295.808594 276.742188 302.539062 276.742188 310.808594 C 276.742188 319.078125 283.472656 325.804688 291.746094 325.804688 C 300.015625 325.804688 306.742188 319.078125 306.742188 310.808594 C 306.742188 302.539062 300.019531 295.808594 291.746094 295.808594 Z M 291.746094 295.808594 "/><path style=" stroke:none;fill-rule:nonzero;fill:#000000;fill-opacity:1;" d="M 227.839844 69.054688 L 230.980469 76.816406 L 60.226562 145.863281 L 57.089844 138.101562 Z M 227.839844 69.054688 "/><path style=" stroke:none;fill-rule:nonzero;fill:#000000;fill-opacity:1;" d="M 245.464844 89.296875 L 251.6875 94.894531 L 191.273438 162.046875 L 185.050781 156.449219 Z M 245.464844 89.296875 "/><path style=" stroke:none;fill-rule:nonzero;fill:#000000;fill-opacity:1;" d="M 195 175.355469 L 312.785156 207.355469 L 310.589844 215.4375 L 192.804688 183.433594 Z M 195 175.355469 "/><path style=" stroke:none;fill-rule:nonzero;fill:#000000;fill-opacity:1;" d="M 310.585938 211.570312 L 312.835938 219.636719 L 75.144531 286.027344 L 72.890625 277.960938 Z M 310.585938 211.570312 "/><path style=" stroke:none;fill-rule:nonzero;fill:#000000;fill-opacity:1;" d="M 74.675781 277.90625 L 273.238281 310.523438 L 271.878906 318.785156 L 73.320312 286.167969 Z M 74.675781 277.90625 "/><path style=" stroke:none;fill-rule:nonzero;fill:#000000;fill-opacity:1;" d="M 331.496094 144.1875 L 332.839844 152.449219 L 194.5625 174.890625 L 193.21875 166.628906 Z M 331.496094 144.1875 "/><path style=" stroke:none;fill-rule:nonzero;fill:#000000;fill-opacity:1;" d="M 318 164.996094 L 329.738281 148.710938 L 313.449219 136.980469 L 325.34375 135.046875 L 341.625 146.78125 L 329.890625 163.0625 Z M 318 164.996094 "/><path style=" stroke:none;fill-rule:nonzero;fill:#000000;fill-opacity:1;" d="M 297.054688 261.714844 L 297.589844 291.1875 L 289.21875 291.339844 L 288.683594 261.867188 Z M 297.054688 261.714844 "/><path style=" stroke:none;fill-rule:nonzero;fill:#000000;fill-opacity:1;" d="M 304.734375 275.257812 L 292.886719 263.820312 L 281.464844 275.675781 L 281.285156 265.796875 L 292.707031 253.949219 L 304.550781 265.371094 Z M 304.734375 275.257812 "/><path style=" stroke:none;fill-rule:nonzero;fill:#000000;fill-opacity:1;" d="M 100.152344 196.179688 L 107.425781 200.332031 L 69.984375 265.894531 L 62.714844 261.742188 Z M 100.152344 196.179688 "/><path style=" stroke:none;fill-rule:nonzero;fill:#000000;fill-opacity:1;" d="M 107.839844 219.769531 L 102.5625 200.402344 L 83.195312 205.6875 L 89.171875 195.226562 L 108.535156 189.945312 L 113.816406 209.308594 Z M 107.839844 219.769531 "/><path style=" stroke:none;fill-rule:nonzero;fill:#000000;fill-opacity:1;" d="M 122.054688 54.691406 L 231.703125 61.292969 L 231.199219 69.652344 L 121.550781 63.050781 Z M 122.054688 54.691406 "/><path style=" stroke:none;fill-rule:nonzero;fill:#000000;fill-opacity:1;" d="M 139.292969 45.710938 L 124.265625 59.023438 L 137.585938 74.042969 L 125.5625 73.320312 L 112.246094 58.300781 L 127.265625 44.984375 Z M 139.292969 45.710938 "/></g></svg>