<svg xmlns="http://www.w3.org/2000/svg" xmlns:xlink="http://www.w3.org/1999/xlink" width="500" zoomAndPan="magnify" viewBox="0 0 375 374.999991" height="500" preserveAspectRatio="xMidYMid meet" version="1.2"><defs><clipPath id="7b8e9b9e16"><path d="M 46.050781 154 L 68 154 L 68 167 L 46.050781 167 Z M 46.050781 154 "/></clipPath><clipPath id="c41cbefbab"><path d="M 323 95 L 349.800781 95 L 349.800781 102 L 323 102 Z M 323 95 "/></clipPath><clipPath id="1b140cfbc9"><path d="M 90 120 L 102 120 L 102 140 L 90 140 Z M 90 120 "/></clipPath><clipPath id="e75f927aa7"><path d="M 92.53125 119.960938 L 102.757812 122.332031 L 96.832031 147.90625 L 86.601562 145.535156 Z M 92.53125 119.960938 "/></clipPath><clipPath id="607ca215de"><path d="M 92.53125 119.960938 L 102.757812 122.332031 L 96.832031 147.90625 L 86.601562 145.535156 Z M 92.53125 119.960938 "/></clipPath><clipPath id="3313180f9a"><path d="M 92.53125 119.960938 L 102.757812 122.332031 L 96.832031 147.90625 L 86.601562 145.535156 Z M 92.53125 119.960938 "/></clipPath><clipPath id="fed75d9cc9"><path d="M 92.523438 119.988281 L 102.75 122.359375 L 98.589844 140.316406 L 88.363281 137.945312 Z M 92.523438 119.988281 "/></clipPath><clipPath id="6ed3bd9e68"><path d="M 91 142 L 96 142 L 96 148 L 91 148 Z M 91 142 "/></clipPath><clipPath id="b72c17fe27"><path d="M 92.53125 119.960938 L 102.757812 122.332031 L 96.832031 147.90625 L 86.601562 145.535156 Z M 92.53125 119.960938 "/></clipPath><clipPath id="d439aea55f"><path d="M 92.53125 119.960938 L 102.757812 122.332031 L 96.832031 147.90625 L 86.601562 145.535156 Z M 92.53125 119.960938 "/></clipPath><clipPath id="1145592956"><path d="M 92.53125 119.960938 L 102.757812 122.332031 L 96.832031 147.90625 L 86.601562 145.535156 Z M 92.53125 119.960938 "/></clipPath><clipPath id="2f13573a03"><path d="M 92.167969 141.898438 L 96.484375 142.898438 L 95.40625 147.546875 L 91.089844 146.542969 Z M 92.167969 141.898438 "/></clipPath></defs><g id="2faacaaeed"><path style="fill:none;stroke-width:5.39;stroke-linecap:round;stroke-linejoin:round;stroke:#000000;stroke-opacity:1;stroke-miterlimit:1.538;" d="M 2144.917559 698.196278 C 2089.359447 670.296309 2002.430466 704.450537 1951.670921 729.728364 C 1933.799578 738.628473 1893.201425 756.42869 1906.297909 784.157959 C 1936.30792 847.663105 2088.377922 797.790252 2134.618659 785.272251 C 2145.358534 782.365609 2212.609598 765.447341 2211.670748 757.614107 C 2208.768847 733.621272 2160.100377 733.791972 2144.628318 733.085464 C 2125.979341 732.227222 1928.280277 744.147773 1923.358427 782.360867 C 1918.261135 822.029653 2086.841622 791.55496 2105.741907 787.429709 C 2117.197774 784.930851 2178.621329 776.9933 2170.342378 769.477758 C 2134.779875 737.224939 1995.071399 786.557243 1950.400154 799.174819 C 1948.678929 799.658469 1883.817666 810.464728 1886.430324 826.017395 C 1897.649109 893.026634 2099.17944 831.916029 2137.530042 824.348329 C 2153.490493 821.19512 2169.332403 817.567745 2185.017837 813.248086 C 2186.558879 812.821336 2206.540264 808.316753 2206.739414 805.884277 C 2208.441672 785.248543 2143.732143 787.078826 2134.727717 787.894393 C 2108.032132 790.307901 1930.219619 815.841778 1934.40177 873.282332 C 1936.658803 904.245418 2056.381153 875.572557 2077.96048 872.45254 C 2098.828556 869.432098 2120.019066 865.325815 2139.621117 857.393006 C 2140.991459 856.838231 2155.410869 852.703497 2153.362468 848.990772 C 2122.570083 793.333085 1983.29784 853.874689 1946.568887 869.133373 C 1934.747911 874.040999 1876.368507 892.884383 1878.592349 910.670376 C 1886.387649 973.028039 2071.639838 909.153043 2102.99174 898.199792 C 2111.180599 895.335825 2175.26897 879.484433 2170.129003 865.131407 C 2150.03856 809.004294 1968.129247 876.776941 1979.319581 926.185111 C 1987.247648 961.244997 2032.99051 952.762154 2056.888512 943.47797 C 2065.760171 940.026037 2074.200338 935.810695 2082.431872 931.04532 C 2084.437597 929.878869 2090.701339 927.237761 2088.377922 927.403719 C 2083.200022 927.773569 2040.999185 941.794679 2050.420878 952.340146 C 2060.188712 963.27443 2083.029322 957.963763 2094.812364 954.791588 C 2095.390848 954.639855 2119.118149 946.801879 2118.520699 946.986804 C 2108.269215 950.116304 2041.558702 975.123856 2053.44132 994.626332 C 2077.140171 1033.53171 2175.899612 973.933698 2170.280736 962.947255 C 2151.698143 926.607119 2022.241151 999.927516 2020.529409 1040.577827 C 2019.178034 1072.849613 2108.240765 1043.607753 2120.260891 1040.098919 C 2127.951875 1037.860852 2135.571734 1035.428377 2143.319618 1033.370493 C 2145.99866 1032.659243 2153.869827 1030.041843 2151.352002 1031.189327 C 2136.221342 1038.14061 2098.83804 1056.08782 2109.658524 1081.398839 " transform="matrix(0.823814,0,0,0.823814,-1493.856113,-549.648468)"/><path style="fill:none;stroke-width:5.39;stroke-linecap:round;stroke-linejoin:round;stroke:#000000;stroke-opacity:1;stroke-miterlimit:1.538;" d="M 2115.742082 1099.218023 C 2114.879099 1097.13169 2115.348524 1094.898364 2116.102449 1092.849964 C 2116.671449 1091.299439 2117.468049 1089.919614 2118.478024 1088.620397 C 2119.141858 1087.771639 2119.891041 1086.998747 2120.687641 1086.292239 C 2123.461516 1083.840797 2126.538858 1086.481906 2127.828592 1089.307939 C 2129.440758 1092.868931 2125.159033 1102.617798 2120.009583 1101.39919 " transform="matrix(0.823814,0,0,0.823814,-1493.856113,-549.648468)"/><path style="fill:none;stroke-width:5.39;stroke-linecap:round;stroke-linejoin:round;stroke:#000000;stroke-opacity:1;stroke-miterlimit:1.538;" d="M 2135.9321 1119.341658 C 2135.102309 1117.520858 2134.832034 1116.050941 2135.168692 1114.059441 C 2135.680792 1111.038999 2136.899401 1108.720324 2139.820267 1107.60129 C 2144.348559 1105.870582 2148.72986 1107.582324 2145.918051 1113.139557 C 2145.391726 1114.192208 2144.661509 1115.031483 2143.869651 1115.889724 C 2142.641559 1117.231616 2141.181126 1118.208399 2139.711209 1119.242083 " transform="matrix(0.823814,0,0,0.823814,-1493.856113,-549.648468)"/><path style="fill:none;stroke-width:5.39;stroke-linecap:round;stroke-linejoin:round;stroke:#000000;stroke-opacity:1;stroke-miterlimit:1.538;" d="M 2150.23771 707.176995 C 2150.199777 694.839178 2163.741977 696.659978 2163.168236 707.395112 C 2162.822094 714.052412 2148.72986 719.671288 2149.649743 711.610454 " transform="matrix(0.823814,0,0,0.823814,-1493.856113,-549.648468)"/><path style="fill:none;stroke-width:5.39;stroke-linecap:round;stroke-linejoin:round;stroke:#000000;stroke-opacity:1;stroke-miterlimit:1.538;" d="M 2169.019453 713.507121 C 2174.67152 716.665071 2179.569662 721.49683 2182.75132 727.177347 " transform="matrix(0.823814,0,0,0.823814,-1493.856113,-549.648468)"/><path style="fill:none;stroke-width:5.39;stroke-linecap:round;stroke-linejoin:round;stroke:#000000;stroke-opacity:1;stroke-miterlimit:1.538;" d="M 2169.910886 702.634478 C 2174.320637 699.70887 2178.867895 697.210011 2183.628529 694.934011 " transform="matrix(0.823814,0,0,0.823814,-1493.856113,-549.648468)"/><path style="fill:none;stroke-width:5.39;stroke-linecap:round;stroke-linejoin:round;stroke:#000000;stroke-opacity:1;stroke-miterlimit:1.538;" d="M 2160.859044 689.087536 C 2160.631444 685.43171 2160.669377 681.567252 2159.948644 677.963585 " transform="matrix(0.823814,0,0,0.823814,-1493.856113,-549.648468)"/><path style="fill:none;stroke-width:5.39;stroke-linecap:round;stroke-linejoin:round;stroke:#000000;stroke-opacity:1;stroke-miterlimit:1.538;" d="M 2137.017942 712.724746 C 2132.281017 713.981287 2126.662142 715.114546 2122.380416 717.665563 " transform="matrix(0.823814,0,0,0.823814,-1493.856113,-549.648468)"/><path style="fill:none;stroke-width:5.39;stroke-linecap:round;stroke-linejoin:round;stroke:#000000;stroke-opacity:1;stroke-miterlimit:1.538;" d="M 2152.921493 725.840197 C 2155.202235 730.102955 2156.738535 734.522189 2156.21221 739.415589 " transform="matrix(0.823814,0,0,0.823814,-1493.856113,-549.648468)"/><path style="fill:none;stroke-width:5.39;stroke-linecap:round;stroke-linejoin:round;stroke:#000000;stroke-opacity:1;stroke-miterlimit:1.538;" d="M 1897.1702 760.165124 C 1887.0989 759.012899 1900.849734 744.323215 1903.258501 754.157432 C 1903.509809 755.186374 1903.538259 756.329115 1903.310659 757.367541 C 1902.969259 758.842199 1902.129984 759.871141 1901.091559 760.942757 " transform="matrix(0.823814,0,0,0.823814,-1493.856113,-549.648468)"/><path style="fill:none;stroke-width:5.39;stroke-linecap:round;stroke-linejoin:round;stroke:#000000;stroke-opacity:1;stroke-miterlimit:1.538;" d="M 1892.428533 766.661208 C 1890.02925 768.666933 1888.189483 770.966642 1885.951416 773.090908 " transform="matrix(0.823814,0,0,0.823814,-1493.856113,-549.648468)"/><path style="fill:none;stroke-width:5.39;stroke-linecap:round;stroke-linejoin:round;stroke:#000000;stroke-opacity:1;stroke-miterlimit:1.538;" d="M 1891.399592 747.798857 C 1888.18 744.830573 1887.179508 740.643681 1886.691116 736.428339 " transform="matrix(0.823814,0,0,0.823814,-1493.856113,-549.648468)"/><path style="fill:none;stroke-width:5.39;stroke-linecap:round;stroke-linejoin:round;stroke:#000000;stroke-opacity:1;stroke-miterlimit:1.538;" d="M 1904.628842 744.968081 C 1906.350068 739.453523 1909.081268 734.929972 1913.600076 731.354755 " transform="matrix(0.823814,0,0,0.823814,-1493.856113,-549.648468)"/><path style="fill:none;stroke-width:5.39;stroke-linecap:round;stroke-linejoin:round;stroke:#000000;stroke-opacity:1;stroke-miterlimit:1.538;" d="M 2193.52913 826.894604 C 2191.570821 833.125154 2190.489721 839.649688 2189.370688 846.069905 C 2188.640471 850.185672 2188.199496 854.315664 2187.630496 858.455139 C 2187.108912 862.262698 2187.052012 866.112932 2186.592071 869.915749 C 2186.421371 871.243415 2186.279121 872.547374 2186.189029 873.879782 C 2186.160579 874.311274 2186.098937 874.738024 2186.089454 875.169516 C 2186.089454 875.406599 2185.937721 876.056207 2186.098937 875.880766 C 2187.431346 874.458266 2187.730071 871.504207 2188.152079 869.716599 C 2189.010321 866.056032 2190.271604 862.461848 2191.461763 858.900856 C 2192.320004 856.316648 2193.18773 853.727697 2194.131321 851.171939 C 2194.871021 849.170955 2195.757713 847.241097 2196.60173 845.282788 C 2197.251338 843.755972 2197.900947 842.233897 2198.560038 840.711821 C 2199.010497 839.687621 2199.498888 838.68713 2200.029955 837.705605 C 2202.040422 834.011846 2205.430714 828.336071 2200.309713 825.808762 C 2199.570013 825.443654 2198.910922 825.282437 2198.08113 825.310887 C 2197.02848 825.34882 2196.042213 825.277695 2194.999046 825.481587 " transform="matrix(0.823814,0,0,0.823814,-1493.856113,-549.648468)"/><path style="fill:none;stroke-width:5.39;stroke-linecap:round;stroke-linejoin:round;stroke:#000000;stroke-opacity:1;stroke-miterlimit:1.538;" d="M 2183.448346 893.633567 C 2181.12967 893.202075 2178.407954 888.360833 2181.679704 887.237058 C 2182.561654 886.933591 2183.628529 887.687516 2184.391937 888.043141 C 2186.378696 888.981992 2187.957671 890.333367 2186.639487 892.818 " transform="matrix(0.823814,0,0,0.823814,-1493.856113,-549.648468)"/><path style="fill:none;stroke-width:5.39;stroke-linecap:round;stroke-linejoin:round;stroke:#000000;stroke-opacity:1;stroke-miterlimit:1.538;" d="M 1951.538154 961.904088 C 1951.291587 964.459847 1951.040279 967.053539 1950.039787 969.452822 C 1947.109437 976.503681 1938.47012 979.353423 1932.761153 973.440564 C 1925.937894 966.365997 1926.791394 949.295996 1937.398503 945.910446 C 1967.550764 936.303828 1956.037996 975.024281 1967.17143 987.774624 " transform="matrix(0.823814,0,0,0.823814,-1493.856113,-549.648468)"/><path style="fill:none;stroke-width:5.39;stroke-linecap:round;stroke-linejoin:round;stroke:#000000;stroke-opacity:1;stroke-miterlimit:1.538;" d="M 1981.088223 998.870124 C 1979.618306 996.508774 1982.287865 994.853932 1982.852123 997.395466 " transform="matrix(0.823814,0,0,0.823814,-1493.856113,-549.648468)"/><path style="fill:none;stroke-width:5.39;stroke-linecap:round;stroke-linejoin:round;stroke:#000000;stroke-opacity:1;stroke-miterlimit:1.538;" d="M 1874.168374 855.657556 C 1879.170832 859.958248 1884.068974 864.552923 1889.370158 868.493248 " transform="matrix(0.823814,0,0,0.823814,-1493.856113,-549.648468)"/><path style="fill:none;stroke-width:5.39;stroke-linecap:round;stroke-linejoin:round;stroke:#000000;stroke-opacity:1;stroke-miterlimit:1.538;" d="M 1875.590874 873.211207 C 1878.819949 867.326798 1881.361482 860.991931 1885.150074 855.467889 " transform="matrix(0.823814,0,0,0.823814,-1493.856113,-549.648468)"/><path style="fill:none;stroke-width:5.39;stroke-linecap:round;stroke-linejoin:round;stroke:#000000;stroke-opacity:1;stroke-miterlimit:1.538;" d="M 1880.029074 851.973281 C 1880.588591 857.843464 1880.588591 864.149881 1882.371458 869.83514 " transform="matrix(0.823814,0,0,0.823814,-1493.856113,-549.648468)"/><g clip-rule="nonzero" clip-path="url(#7b8e9b9e16)"><path style="fill:none;stroke-width:5.39;stroke-linecap:round;stroke-linejoin:round;stroke:#000000;stroke-opacity:1;stroke-miterlimit:1.538;" d="M 1872.328607 866.862115 C 1875.80899 862.997656 1886.738533 857.317139 1892.200933 857.672764 " transform="matrix(0.823814,0,0,0.823814,-1493.856113,-549.648468)"/></g><path style="fill:none;stroke-width:5.39;stroke-linecap:round;stroke-linejoin:round;stroke:#000000;stroke-opacity:1;stroke-miterlimit:1.538;" d="M 2001.529549 681.116793 C 2005.541 682.55826 2010.818475 683.49711 2013.8484 686.721444 " transform="matrix(0.823814,0,0,0.823814,-1493.856113,-549.648468)"/><path style="fill:none;stroke-width:5.39;stroke-linecap:round;stroke-linejoin:round;stroke:#000000;stroke-opacity:1;stroke-miterlimit:1.538;" d="M 2000.870458 699.386436 C 2005.868175 692.193328 2010.989175 685.099794 2016.0106 677.930393 " transform="matrix(0.823814,0,0,0.823814,-1493.856113,-549.648468)"/><path style="fill:none;stroke-width:5.39;stroke-linecap:round;stroke-linejoin:round;stroke:#000000;stroke-opacity:1;stroke-miterlimit:1.538;" d="M 2007.338091 676.484185 C 2009.419683 682.510844 2011.567658 688.409477 2012.68195 694.701669 " transform="matrix(0.823814,0,0,0.823814,-1493.856113,-549.648468)"/><path style="fill:none;stroke-width:5.39;stroke-linecap:round;stroke-linejoin:round;stroke:#000000;stroke-opacity:1;stroke-miterlimit:1.538;" d="M 1998.390566 692.624819 C 2004.251266 690.149669 2010.429658 687.574944 2016.650725 686.123994 " transform="matrix(0.823814,0,0,0.823814,-1493.856113,-549.648468)"/><path style="fill:none;stroke-width:5.39;stroke-linecap:round;stroke-linejoin:round;stroke:#000000;stroke-opacity:1;stroke-miterlimit:1.538;" d="M 2145.548201 927.541228 C 2144.282176 926.237269 2143.101501 924.890636 2142.632076 923.084061 C 2139.649567 911.78941 2162.428536 918.93036 2152.589577 924.264736 " transform="matrix(0.823814,0,0,0.823814,-1493.856113,-549.648468)"/><path style="fill:none;stroke-width:5.39;stroke-linecap:round;stroke-linejoin:round;stroke:#000000;stroke-opacity:1;stroke-miterlimit:1.538;" d="M 2148.521226 910.698826 C 2150.57911 905.905001 2153.329277 901.561634 2156.657927 897.564409 " transform="matrix(0.823814,0,0,0.823814,-1493.856113,-549.648468)"/><path style="fill:none;stroke-width:5.39;stroke-linecap:round;stroke-linejoin:round;stroke:#000000;stroke-opacity:1;stroke-miterlimit:1.538;" d="M 2164.647636 921.671044 C 2170.46092 923.335369 2175.790553 925.649302 2181.399945 927.811503 " transform="matrix(0.823814,0,0,0.823814,-1493.856113,-549.648468)"/><path style="fill:none;stroke-width:5.39;stroke-linecap:round;stroke-linejoin:round;stroke:#000000;stroke-opacity:1;stroke-miterlimit:1.538;" d="M 2133.390567 916.161227 C 2130.559792 915.611193 2126.681108 914.440002 2123.750758 915.056418 " transform="matrix(0.823814,0,0,0.823814,-1493.856113,-549.648468)"/><path style="fill:none;stroke-width:5.39;stroke-linecap:round;stroke-linejoin:round;stroke:#000000;stroke-opacity:1;stroke-miterlimit:1.538;" d="M 2134.040175 933.060528 C 2132.14825 935.639995 2130.649883 937.527178 2129.398083 940.324762 " transform="matrix(0.823814,0,0,0.823814,-1493.856113,-549.648468)"/><path style="fill:none;stroke-width:5.39;stroke-linecap:round;stroke-linejoin:round;stroke:#000000;stroke-opacity:1;stroke-miterlimit:1.538;" d="M 2153.499977 931.932011 C 2155.50096 935.28437 2155.349227 935.05677 2157.501944 938.546637 " transform="matrix(0.823814,0,0,0.823814,-1493.856113,-549.648468)"/><path style="fill:none;stroke-width:5.39;stroke-linecap:round;stroke-linejoin:round;stroke:#000000;stroke-opacity:1;stroke-miterlimit:1.538;" d="M 1930.470928 691.273444 C 1932.618903 694.758569 1934.951803 698.205761 1936.658803 701.937453 C 1937.279961 703.269862 1937.711453 704.635462 1938.12872 706.038995 C 1938.351578 706.754987 1938.849453 708.737004 1939.119728 708.04472 C 1939.94952 705.953645 1938.901612 702.544387 1938.508053 700.358478 C 1937.678261 695.687936 1938.949028 690.367786 1933.538786 688.717686 " transform="matrix(0.823814,0,0,0.823814,-1493.856113,-549.648468)"/><path style="fill:none;stroke-width:5.39;stroke-linecap:round;stroke-linejoin:round;stroke:#000000;stroke-opacity:1;stroke-miterlimit:1.538;" d="M 1942.438895 721.776588 C 1942.728137 718.528546 1947.099954 718.343621 1945.260187 721.008438 " transform="matrix(0.823814,0,0,0.823814,-1493.856113,-549.648468)"/><path style="fill:none;stroke-width:5.39;stroke-linecap:round;stroke-linejoin:round;stroke:#000000;stroke-opacity:1;stroke-miterlimit:1.538;" d="M 2079.738605 714.597704 C 2071.198863 711.411304 2077.751846 699.76577 2084.679422 698.670445 C 2092.858797 697.37597 2097.538823 706.717054 2094.617956 713.530829 C 2090.388389 723.407721 2080.430888 726.176855 2073.000696 732.402664 " transform="matrix(0.823814,0,0,0.823814,-1493.856113,-549.648468)"/><path style="fill:none;stroke-width:5.39;stroke-linecap:round;stroke-linejoin:round;stroke:#000000;stroke-opacity:1;stroke-miterlimit:1.538;" d="M 2063.93937 749.776132 C 2060.511145 749.00324 2064.100587 742.910198 2063.74022 746.18669 " transform="matrix(0.823814,0,0,0.823814,-1493.856113,-549.648468)"/><path style="fill:none;stroke-width:5.39;stroke-linecap:round;stroke-linejoin:round;stroke:#000000;stroke-opacity:1;stroke-miterlimit:1.538;" d="M 2213.771306 777.922667 C 2216.981415 783.498867 2219.760031 789.297926 2223.287832 794.665493 " transform="matrix(0.823814,0,0,0.823814,-1493.856113,-549.648468)"/><path style="fill:none;stroke-width:5.39;stroke-linecap:round;stroke-linejoin:round;stroke:#000000;stroke-opacity:1;stroke-miterlimit:1.538;" d="M 2211.741873 792.982201 C 2216.730106 788.581934 2221.329523 783.204884 2226.758732 779.364134 " transform="matrix(0.823814,0,0,0.823814,-1493.856113,-549.648468)"/><path style="fill:none;stroke-width:5.39;stroke-linecap:round;stroke-linejoin:round;stroke:#000000;stroke-opacity:1;stroke-miterlimit:1.538;" d="M 2220.129881 777.273059 C 2220.60879 784.186409 2220.390673 791.891618 2217.199531 798.26916 " transform="matrix(0.823814,0,0,0.823814,-1493.856113,-549.648468)"/><g clip-rule="nonzero" clip-path="url(#c41cbefbab)"><path style="fill:none;stroke-width:5.39;stroke-linecap:round;stroke-linejoin:round;stroke:#000000;stroke-opacity:1;stroke-miterlimit:1.538;" d="M 2208.877906 788.088801 C 2215.691681 786.708976 2227.94889 784.067867 2234.909658 786.557243 " transform="matrix(0.823814,0,0,0.823814,-1493.856113,-549.648468)"/></g><g clip-rule="nonzero" clip-path="url(#1b140cfbc9)"><g clip-rule="nonzero" clip-path="url(#e75f927aa7)"><g clip-rule="nonzero" clip-path="url(#607ca215de)"><g clip-rule="nonzero" clip-path="url(#3313180f9a)"><g clip-rule="nonzero" clip-path="url(#fed75d9cc9)"><path style=" stroke:none;fill-rule:nonzero;fill:#000000;fill-opacity:1;" d="M 93.417969 137.378906 Z M 101.453125 127.953125 L 101.484375 127.765625 L 101.507812 127.578125 L 101.515625 127.511719 L 101.539062 127.410156 L 101.5625 127.292969 L 101.582031 127.171875 L 101.601562 127.054688 L 101.621094 126.933594 L 101.636719 126.8125 L 101.660156 126.5625 L 101.675781 126.3125 L 101.679688 126.1875 L 101.683594 126.058594 L 101.683594 125.796875 L 101.679688 125.667969 L 101.675781 125.535156 L 101.667969 125.402344 L 101.65625 125.265625 L 101.644531 125.125 L 101.605469 124.851562 L 101.550781 124.585938 L 101.519531 124.453125 L 101.484375 124.328125 L 101.445312 124.203125 L 101.402344 124.078125 L 101.355469 123.957031 L 101.304688 123.839844 L 101.195312 123.613281 L 101.132812 123.5 L 101.070312 123.394531 L 101.003906 123.289062 L 100.933594 123.1875 L 100.859375 123.089844 L 100.703125 122.902344 L 100.621094 122.816406 L 100.535156 122.730469 L 100.449219 122.648438 L 100.269531 122.492188 L 100.175781 122.421875 L 99.980469 122.289062 L 99.882812 122.226562 L 99.679688 122.117188 L 99.574219 122.066406 L 99.472656 122.019531 L 99.367188 121.972656 L 99.257812 121.933594 L 99.152344 121.894531 L 98.824219 121.800781 L 98.714844 121.777344 L 98.6875 121.773438 L 98.589844 121.707031 L 98.480469 121.636719 L 98.371094 121.570312 L 98.261719 121.507812 L 98.035156 121.390625 L 97.921875 121.335938 L 97.804688 121.285156 L 97.6875 121.238281 L 97.566406 121.191406 L 97.449219 121.152344 L 97.328125 121.113281 L 97.207031 121.078125 L 97.082031 121.046875 L 96.957031 121.019531 L 96.832031 120.996094 L 96.707031 120.976562 L 96.578125 120.957031 L 96.453125 120.945312 L 96.324219 120.9375 L 96.195312 120.933594 L 96.066406 120.933594 L 95.9375 120.9375 L 95.804688 120.949219 L 95.675781 120.960938 L 95.417969 121 L 95.289062 121.027344 L 95.160156 121.058594 L 94.902344 121.136719 L 94.777344 121.179688 L 94.652344 121.230469 L 94.527344 121.285156 L 94.402344 121.34375 L 94.28125 121.40625 L 94.160156 121.476562 L 94.042969 121.546875 L 93.921875 121.625 L 93.808594 121.703125 L 93.695312 121.789062 L 93.582031 121.878906 L 93.46875 121.972656 L 93.363281 122.070312 L 93.253906 122.171875 L 93.148438 122.277344 L 93.046875 122.386719 L 92.84375 122.621094 L 92.746094 122.742188 L 92.558594 123 L 92.46875 123.132812 L 92.289062 123.414062 L 92.203125 123.5625 L 92.121094 123.710938 L 92.035156 123.871094 L 91.953125 124.039062 L 91.878906 124.214844 L 91.8125 124.386719 L 91.75 124.554688 L 91.695312 124.722656 L 91.648438 124.886719 L 91.5625 125.199219 L 91.523438 125.347656 L 91.488281 125.492188 L 91.449219 125.628906 L 91.414062 125.757812 L 91.410156 125.769531 L 91.40625 125.785156 L 91.390625 125.816406 L 91.371094 125.859375 L 91.347656 125.910156 L 91.316406 125.96875 L 91.242188 126.109375 L 91.082031 126.429688 L 91.035156 126.539062 L 90.996094 126.648438 L 90.957031 126.765625 L 90.921875 126.898438 L 90.898438 127.054688 L 90.886719 127.195312 L 90.890625 127.316406 L 90.898438 127.421875 L 90.917969 127.527344 L 90.949219 127.636719 L 90.992188 127.753906 L 91.046875 127.863281 L 91.113281 127.972656 L 91.195312 128.074219 L 91.28125 128.167969 L 91.371094 128.25 L 91.472656 128.320312 L 91.570312 128.378906 L 91.664062 128.429688 L 91.769531 128.472656 L 91.875 128.503906 L 91.980469 128.53125 L 92.09375 128.550781 L 92.199219 128.558594 L 92.304688 128.558594 L 92.410156 128.550781 L 92.511719 128.539062 L 92.605469 128.519531 L 92.695312 128.496094 L 92.800781 128.457031 L 92.929688 128.402344 L 93.066406 128.332031 L 93.183594 128.253906 L 93.292969 128.175781 L 93.390625 128.09375 L 93.476562 128.015625 L 93.558594 127.9375 L 93.632812 127.855469 L 93.703125 127.777344 L 93.769531 127.703125 L 93.832031 127.628906 L 93.890625 127.554688 L 93.902344 127.539062 C 94.386719 127.515625 94.796875 127.152344 94.859375 126.664062 L 94.871094 126.574219 L 94.882812 126.472656 L 94.886719 126.378906 L 94.894531 126.285156 L 94.902344 126.105469 L 94.90625 125.949219 L 94.90625 125.925781 L 94.921875 125.894531 L 94.957031 125.8125 L 94.988281 125.746094 L 95.019531 125.683594 L 95.105469 125.519531 L 95.121094 125.484375 L 95.246094 125.296875 L 95.273438 125.25 L 95.3125 125.195312 L 95.371094 125.125 L 95.425781 125.050781 L 95.488281 124.976562 L 95.546875 124.902344 L 95.613281 124.828125 L 95.675781 124.757812 L 95.875 124.546875 L 95.941406 124.480469 L 96.011719 124.414062 L 96.082031 124.351562 L 96.152344 124.292969 L 96.222656 124.230469 L 96.363281 124.121094 L 96.433594 124.070312 L 96.503906 124.023438 L 96.570312 123.980469 L 96.640625 123.9375 L 96.707031 123.902344 L 96.738281 123.890625 L 96.804688 123.867188 L 96.875 123.847656 L 96.941406 123.828125 L 97.011719 123.808594 L 97.078125 123.792969 L 97.148438 123.777344 L 97.214844 123.761719 L 97.285156 123.75 L 97.351562 123.742188 L 97.417969 123.730469 L 97.484375 123.722656 L 97.511719 123.722656 L 97.535156 123.726562 L 97.582031 123.738281 L 97.628906 123.753906 L 97.679688 123.773438 L 97.734375 123.792969 L 97.800781 123.828125 L 97.816406 123.839844 L 97.847656 123.855469 L 97.875 123.875 L 97.90625 123.894531 L 97.9375 123.917969 L 97.972656 123.941406 L 98.003906 123.964844 L 98.039062 123.992188 L 98.109375 124.054688 L 98.222656 124.167969 L 98.261719 124.214844 L 98.304688 124.265625 L 98.375 124.375 L 98.410156 124.433594 L 98.445312 124.496094 L 98.476562 124.558594 L 98.53125 124.699219 L 98.558594 124.773438 L 98.582031 124.851562 L 98.605469 124.933594 L 98.625 125.015625 L 98.640625 125.101562 L 98.671875 125.28125 L 98.679688 125.375 L 98.691406 125.46875 L 98.695312 125.5625 L 98.703125 125.664062 L 98.703125 125.964844 L 98.695312 126.066406 L 98.691406 126.167969 L 98.683594 126.273438 L 98.671875 126.378906 L 98.660156 126.480469 L 98.644531 126.585938 L 98.613281 126.789062 L 98.59375 126.894531 L 98.570312 126.996094 L 98.550781 127.09375 L 98.527344 127.195312 L 98.5 127.292969 L 98.417969 127.574219 L 98.355469 127.753906 L 98.324219 127.839844 L 98.292969 127.917969 L 98.261719 128 L 98.230469 128.074219 L 98.195312 128.148438 L 98.167969 128.207031 L 98.121094 128.296875 L 98.078125 128.375 L 98.023438 128.460938 L 97.898438 128.632812 L 97.75 128.8125 L 97.667969 128.90625 L 97.582031 128.996094 L 97.492188 129.09375 L 97.394531 129.1875 L 97.300781 129.28125 L 97.195312 129.378906 L 97.09375 129.476562 L 96.988281 129.574219 L 96.882812 129.675781 L 96.777344 129.773438 L 96.558594 129.976562 L 96.339844 130.1875 L 96.128906 130.40625 L 96.027344 130.515625 L 95.960938 130.589844 L 95.898438 130.660156 L 95.835938 130.734375 L 95.777344 130.804688 L 95.714844 130.875 L 95.65625 130.949219 L 95.597656 131.019531 L 95.539062 131.09375 L 95.484375 131.164062 L 95.425781 131.238281 L 95.207031 131.535156 L 95.15625 131.609375 L 95.101562 131.683594 L 95 131.832031 L 94.949219 131.910156 L 94.902344 131.984375 L 94.804688 132.136719 L 94.710938 132.292969 L 94.621094 132.445312 L 94.449219 132.757812 L 94.292969 133.078125 L 94.21875 133.238281 L 94.148438 133.398438 L 94.078125 133.5625 L 94.015625 133.726562 L 93.957031 133.890625 L 93.898438 134.058594 L 93.84375 134.226562 L 93.792969 134.394531 L 93.746094 134.566406 L 93.703125 134.738281 L 93.664062 134.910156 L 93.628906 135.082031 L 93.597656 135.257812 L 93.570312 135.429688 L 93.542969 135.609375 L 93.523438 135.785156 L 93.503906 135.964844 L 93.5 136.011719 L 93.476562 136.066406 L 93.4375 136.15625 L 93.402344 136.246094 L 93.367188 136.332031 L 93.296875 136.519531 L 93.265625 136.609375 L 93.183594 136.890625 L 93.160156 136.984375 L 93.121094 137.179688 L 93.109375 137.28125 L 93.097656 137.390625 L 93.09375 137.5 L 93.097656 137.617188 L 93.109375 137.742188 L 93.128906 137.875 L 93.167969 138.015625 L 93.226562 138.167969 L 93.296875 138.300781 L 93.367188 138.40625 L 93.449219 138.503906 L 93.554688 138.605469 L 93.703125 138.714844 L 93.710938 138.71875 C 93.886719 139.167969 94.363281 139.445312 94.855469 139.355469 C 95.414062 139.257812 95.78125 138.730469 95.675781 138.179688 L 95.660156 138.09375 L 95.648438 138.015625 L 95.632812 137.941406 L 95.621094 137.863281 L 95.597656 137.714844 L 95.589844 137.640625 L 95.578125 137.566406 L 95.554688 137.34375 L 95.550781 137.273438 L 95.542969 137.199219 L 95.542969 137.1875 L 95.554688 137.113281 L 95.570312 137.023438 L 95.585938 136.9375 L 95.597656 136.863281 L 95.613281 136.789062 L 95.617188 136.765625 L 95.625 136.742188 L 95.628906 136.722656 L 95.632812 136.707031 L 95.640625 136.691406 L 95.671875 136.597656 L 95.703125 136.5 L 95.734375 136.410156 L 95.761719 136.324219 L 95.789062 136.242188 L 95.8125 136.164062 L 95.835938 136.089844 L 95.859375 136.019531 L 95.882812 135.953125 L 95.902344 135.890625 L 95.921875 135.832031 L 95.9375 135.78125 L 95.945312 135.769531 L 95.972656 135.71875 L 96.003906 135.671875 L 96.03125 135.628906 L 96.054688 135.585938 L 96.078125 135.550781 L 96.101562 135.519531 L 96.117188 135.496094 L 96.132812 135.476562 L 96.140625 135.464844 L 96.136719 135.464844 L 96.207031 135.382812 L 96.269531 135.300781 L 96.402344 135.144531 L 96.613281 134.910156 L 96.6875 134.828125 L 96.757812 134.75 L 96.835938 134.671875 L 96.910156 134.589844 L 96.988281 134.511719 L 97.0625 134.433594 L 97.144531 134.351562 L 97.222656 134.265625 L 97.304688 134.183594 L 97.464844 134.019531 L 97.542969 133.9375 L 97.628906 133.851562 L 97.710938 133.761719 L 97.871094 133.59375 L 97.953125 133.507812 L 98.050781 133.398438 L 98.148438 133.292969 L 98.25 133.179688 L 98.351562 133.070312 L 98.667969 132.71875 L 98.777344 132.597656 L 98.886719 132.472656 L 98.992188 132.347656 L 99.046875 132.28125 L 99.105469 132.21875 L 99.214844 132.085938 L 99.269531 132.015625 L 99.324219 131.953125 L 99.375 131.890625 L 99.433594 131.820312 L 99.488281 131.746094 L 99.59375 131.617188 L 99.652344 131.542969 L 99.707031 131.46875 L 99.757812 131.402344 L 99.808594 131.332031 L 99.863281 131.261719 L 99.917969 131.1875 L 99.96875 131.113281 L 100.023438 131.039062 L 100.226562 130.742188 L 100.277344 130.664062 L 100.328125 130.589844 L 100.421875 130.433594 L 100.472656 130.355469 L 100.566406 130.199219 L 100.609375 130.117188 L 100.65625 130.039062 L 100.699219 129.957031 L 100.746094 129.878906 L 100.789062 129.796875 L 100.828125 129.714844 L 100.871094 129.628906 L 100.914062 129.546875 L 100.953125 129.464844 L 100.988281 129.378906 L 101.027344 129.296875 L 101.066406 129.207031 L 101.199219 128.863281 L 101.261719 128.683594 L 101.316406 128.503906 L 101.367188 128.324219 L 101.414062 128.140625 L 101.453125 127.953125 "/></g></g></g></g></g><g clip-rule="nonzero" clip-path="url(#6ed3bd9e68)"><g clip-rule="nonzero" clip-path="url(#b72c17fe27)"><g clip-rule="nonzero" clip-path="url(#d439aea55f)"><g clip-rule="nonzero" clip-path="url(#1145592956)"><g clip-rule="nonzero" clip-path="url(#2f13573a03)"><path style=" stroke:none;fill-rule:nonzero;fill:#000000;fill-opacity:1;" d="M 95.925781 145.136719 L 95.9375 144.996094 L 95.945312 144.851562 L 95.9375 144.703125 L 95.921875 144.550781 L 95.894531 144.398438 L 95.847656 144.242188 L 95.792969 144.101562 L 95.730469 143.96875 L 95.65625 143.84375 L 95.582031 143.726562 L 95.496094 143.621094 L 95.40625 143.515625 L 95.316406 143.421875 L 95.269531 143.378906 L 95.265625 143.359375 L 95.226562 143.199219 L 95.148438 143.019531 L 95.035156 142.855469 L 94.894531 142.707031 L 94.726562 142.589844 L 94.566406 142.511719 L 94.410156 142.460938 L 94.265625 142.433594 L 94.125 142.421875 L 93.984375 142.421875 L 93.828125 142.433594 L 93.679688 142.457031 L 93.535156 142.488281 L 93.390625 142.523438 L 93.257812 142.570312 L 93.125 142.621094 L 92.992188 142.679688 L 92.867188 142.746094 L 92.746094 142.816406 L 92.628906 142.894531 L 92.511719 142.976562 L 92.402344 143.0625 L 92.296875 143.15625 L 92.195312 143.257812 L 92.097656 143.363281 L 92.003906 143.480469 L 91.917969 143.601562 L 91.835938 143.726562 L 91.761719 143.867188 L 91.699219 144.011719 L 91.648438 144.164062 L 91.605469 144.328125 L 91.578125 144.476562 L 91.570312 144.625 L 91.578125 144.777344 L 91.609375 144.941406 L 91.667969 145.113281 L 91.769531 145.292969 L 91.894531 145.445312 L 92.035156 145.566406 L 92.1875 145.660156 L 92.320312 145.71875 L 92.445312 145.757812 L 92.558594 145.78125 L 92.652344 145.792969 L 92.738281 145.796875 L 92.785156 145.800781 L 92.785156 145.8125 L 92.773438 145.941406 L 92.769531 146.070312 L 92.78125 146.1875 L 92.808594 146.316406 L 92.855469 146.46875 L 92.945312 146.636719 L 93.066406 146.800781 L 93.226562 146.945312 L 93.414062 147.058594 L 93.597656 147.125 L 93.765625 147.160156 L 93.917969 147.171875 L 94.042969 147.167969 L 94.140625 147.15625 L 94.230469 147.140625 L 94.320312 147.117188 L 94.40625 147.09375 L 94.488281 147.066406 L 94.589844 147.027344 L 94.71875 146.964844 L 94.859375 146.878906 L 94.984375 146.789062 L 95.101562 146.695312 L 95.210938 146.59375 L 95.308594 146.488281 L 95.398438 146.382812 L 95.480469 146.269531 L 95.554688 146.152344 L 95.625 146.035156 L 95.6875 145.914062 L 95.742188 145.792969 L 95.792969 145.667969 L 95.835938 145.539062 L 95.871094 145.40625 L 95.902344 145.273438 L 95.925781 145.136719 "/></g></g></g></g></g></g></svg>